<svg class="animated" id="freepik_stories-water-ski" xmlns="http://www.w3.org/2000/svg" viewBox="0 0 500 500" version="1.1" xmlns:xlink="http://www.w3.org/1999/xlink" xmlns:svgjs="http://svgjs.com/svgjs"><style>svg#freepik_stories-water-ski:not(.animated) .animable {opacity: 0;}svg#freepik_stories-water-ski.animated #freepik--Water--inject-3 {animation: 1s 1 forwards cubic-bezier(.36,-0.01,.5,1.38) slideLeft;animation-delay: 0s;}svg#freepik_stories-water-ski.animated #freepik--Clouds--inject-3 {animation: 1s 1 forwards cubic-bezier(.36,-0.01,.5,1.38) lightSpeedLeft;animation-delay: 0s;}svg#freepik_stories-water-ski.animated #freepik--Sun--inject-3 {animation: 1s 1 forwards cubic-bezier(.36,-0.01,.5,1.38) slideUp;animation-delay: 0s;}svg#freepik_stories-water-ski.animated #freepik--character-2--inject-3 {animation: 1s 1 forwards cubic-bezier(.36,-0.01,.5,1.38) zoomOut;animation-delay: 0s;}svg#freepik_stories-water-ski.animated #freepik--character-1--inject-3 {animation: 1s 1 forwards cubic-bezier(.36,-0.01,.5,1.38) slideDown;animation-delay: 0s;}            @keyframes slideLeft {                0% {                    opacity: 0;                    transform: translateX(-30px);                }                100% {                    opacity: 1;                    transform: translateX(0);                }            }                    @keyframes lightSpeedLeft {              from {                transform: translate3d(-50%, 0, 0) skewX(20deg);                opacity: 0;              }              60% {                transform: skewX(-10deg);                opacity: 1;              }              80% {                transform: skewX(2deg);              }              to {                opacity: 1;                transform: translate3d(0, 0, 0);              }            }                    @keyframes slideUp {                0% {                    opacity: 0;                    transform: translateY(30px);                }                100% {                    opacity: 1;                    transform: inherit;                }            }                    @keyframes zoomOut {                0% {                    opacity: 0;                    transform: scale(1.5);                }                100% {                    opacity: 1;                    transform: scale(1);                }            }                    @keyframes slideDown {                0% {                    opacity: 0;                    transform: translateY(-30px);                }                100% {                    opacity: 1;                    transform: translateY(0);                }            }        </style><g id="freepik--Water--inject-3" class="animable" style="transform-origin: 250px 315.884px;"><g id="freepik--water--inject-3" class="animable" style="transform-origin: 250px 315.884px;"><ellipse cx="250" cy="308.76" rx="239.65" ry="145.6" style="fill: rgb(38, 86, 194); transform-origin: 250px 308.76px;" id="elud9s78omwwq" class="animable"></ellipse><g id="elka17u10ozbk"><ellipse cx="250" cy="308.76" rx="239.65" ry="145.6" style="fill: rgb(255, 255, 255); opacity: 0.5; transform-origin: 250px 308.76px;" class="animable"></ellipse></g><g id="eleoz5nnze27"><g style="opacity: 0.2; transform-origin: 250.028px 310.115px;" class="animable"><g id="ell3crnm6kgwl"><path d="M435.34,399.39c-4.41.34-8.64.13-13,.27a84.78,84.78,0,0,0-12.77,1.39c-2.64.49-5.51,1.19-7.34,2.53-2.69,2-2,4.5-.58,6.36,2.06,2.71,5.35,4.93,8,7.41,2.45-1.33,4.87-2.71,7.26-4.11-1.22-1.84-2-3.74-3.09-5-.3-.33-.59-.69-.44-1.08.29-.68,2-1.38,3.87-1.82a54.41,54.41,0,0,1,6.07-.86q4.23-.42,8.45-.78c2.13-1.5,4.19-3,6.2-4.57C437.09,399.22,436.21,399.32,435.34,399.39Z" style="fill: rgb(255, 255, 255); opacity: 0.7; transform-origin: 419.184px 408.24px;" class="animable"></path></g><g id="elf1ek3rfqjci"><path d="M467.51,332.51a15.78,15.78,0,0,0-6.24,8.06,20.39,20.39,0,0,0-1.21,9.72c.41,3.34,1.69,6.74-.9,10.17-3.1,4.07-11.12,6.92-18.24,7.32a39.22,39.22,0,0,1-18.3-3.47,21.53,21.53,0,0,1-7.75-5.22c-4-4.68-2.2-11.36,4.37-16.58,5.56-4.45,13.92-7.65,19.52-12.07,9.74-7.75,8.79-17.16,15.1-25.7a7.09,7.09,0,0,1,3.63-2.79c2.72-.86,5.45.16,6.46,1.51s1.06,3,2.23,4.32c2.13,2.31,7.6,2.92,12.73,2.13a48.6,48.6,0,0,0,10.7-3.12c0-1.82-.13-3.65-.28-5.48l-.06,0-7.93,2.39a15.72,15.72,0,0,1-3.63.8,9.05,9.05,0,0,1-3.86-.71,16.84,16.84,0,0,1-6.8-4.46c-2.39-2.83-2.93-6.25-3.41-9.6s-1-6.78-3.38-9.62-7-5-13-4.89c-3.26.08-6.8.81-9.67.28s-4.21-2.2-4.39-4,.69-3.68,1.56-5.54c1.26-2.72,2.46-5.65.71-7.86s-5.87-3.11-7.56-5.23c-2.09-2.53.28-6.46,5.12-8.51a8.86,8.86,0,0,1,2.27-.67,13.61,13.61,0,0,1,2.86.08,22.87,22.87,0,0,0,13.72-3.53s2.63-1.75,6.32-3.66q-2.08-2.22-4.3-4.4L432.08,219.6c-9.41-.94-19.23-1.68-26.6-3.6-19.55-5.1-16.07-16.87-34.46-22.42-2.84-.86-6.23-1.55-8.47-2.61a8.69,8.69,0,0,1-4.2-4.08c-1.56-2.77-2.6-5.66-2-8.66-9.85-3-20-5.48-30.28-7.57-.85.25-1.74.48-2.68.67-5.2,1.07-10.21,1.34-14.82,3a59,59,0,0,0-10.77,5.14c-3.27,1.93-6.44,4.07-10.52,5.25a31.46,31.46,0,0,1-12.34.77c-7.14-.86-12.82-3.28-18.89-5.24s-13.18-3.54-21-2.57c-5.1.64-10.35,2.33-15.21,2.16a16.94,16.94,0,0,1-11.6-5.11c-2.61-2.48-5-5.24-9.57-6.51a35.31,35.31,0,0,0-5.53-.89q-10,1.48-19.83,3.5a4.74,4.74,0,0,1,.58,1.87,2.16,2.16,0,0,1-1.37,2.13c-1.49.83-4.11,1.37-6.34,2-6.15,1.76-9.42,4.4-10.88,6.82s-1.51,4.8-3.12,7.23c-1.4,2.11-4.89,4.57-11,5.51a36.54,36.54,0,0,1-11.27-.16c-3.2-.54-5.75-1.36-8.79-2a77.5,77.5,0,0,0-16.79-1.11,247.39,247.39,0,0,0-23.76,12.67,208.06,208.06,0,0,0-18.42,12.56,35.38,35.38,0,0,0,8.26,4.87c2.9,1.25,6.36,2.49,6.13,4.29-.16,1.49-2.8,3-5.38,4.48a22.74,22.74,0,0,1-7.76,3c-5,.89-9.68,0-14-.58-1.55-.21-3.25-.36-5-.46q-2.43,2.46-4.68,5a24.69,24.69,0,0,1,4.51.51c7.46,1.64,10,6.63,12.07,11.16s5.1,9.45,12.9,10.71c5.91,1,13.2-.47,19.46.06,7.72.68,10.5,4,11.55,6.5,1.45,3.48-1.8,7.4-3.56,11.12a9.63,9.63,0,0,0,.09,8.1c1.33,3.35,6.56,8.45.52,10.57-3.81,1.33-5.09-2.75-7.38-4.33-4-2.76-11.42-3.46-18.56-2.39a60.14,60.14,0,0,0-19.72,6.86,60.32,60.32,0,0,1-9,4.57c-8.56,3.08-19.43.85-20.38-4.15-.58-3.21,2.26-6.8,2.21-10.1-.05-4-4.33-6.95-8.8-9.62q-1.35,3.87-2.35,7.77a4.44,4.44,0,0,1,.27.38c2.55,4.2-2.29,10.31,2.18,13.77,1.17.93,3.09,1.78,2.48,3.11-.42,1-2.06,1.75-3.72,2.15-1.33.32-2.69.45-4,.65-.06,2-.06,4,0,6a108.48,108.48,0,0,1,19.39-2.85c2.95-.22,6-.41,8.4.29,4,1.18,4.36,4.36,4.81,7.11,1.35,7.86,6.53,15,14.86,20.42A26.88,26.88,0,0,0,66.15,341c5.69,1.46,13.29,1.22,17.55,3.7,5.82,3.38,2.71,9.82-.66,15.24a9.12,9.12,0,0,1-3.17,3.37c-3.49,2.08-8.82,1.69-12.34.57a21.3,21.3,0,0,1-7-3.62c-2-1.62-3.35-3.56-5.62-5-4.35-2.78-12.14-3.56-19.5-2a18.46,18.46,0,0,0-6.1,2.29c-1.63,1.09-2.5,2.45-4,3.61l-.13.09q1.93,3.19,4.14,6.34a26.93,26.93,0,0,1,17-5.94c15.76.48,10.52,9.62,27.29,10,3.81.08,7.93-.1,11.32.29,5,.59,7.37,2.28,12.13,3,5.69.81,13.1.3,19.87-.24,7.43-.6,15.34-1.25,21.46-.43,3.35.44,7,1.54,8,2.77,2.54,3.17,3.31,6.85,1.41,10.47a10.31,10.31,0,0,1-2.51,3.39c-4.14,3.44-12.52,3.74-17.89,2.34s-9.48-4-15.47-4.72c-5.61-.67-12.24.44-18.06,2.39a80.88,80.88,0,0,0-15.7,7.53,26.32,26.32,0,0,1-6.26,3,22.55,22.55,0,0,1-7.49.66c-.45,0-.88-.08-1.31-.12a207.44,207.44,0,0,0,17.38,11.77,255,255,0,0,0,36.38,18.16c9.57,1,18.87,2.1,22.62,5.09a4.76,4.76,0,0,1,1.87,3.63q7,2.16,14.18,4c.77-2.13,2.93-4.31,3.5-6.45.75-2.92-1.49-5.44-4.65-7.23-15.24-8.63-47.67-3-62.41-11.9a18.71,18.71,0,0,1-6.49-6.67c-1.87-3.18-2.57-7.26,1.82-10.5,3.08-2.26,8-3.51,12.45-3.78a63.17,63.17,0,0,1,12.68.8l17.08,2.27c5.67.74,13,1.14,17.58-1.87,4.43-2.91,4.1-7.83,9.95-9.43a14.32,14.32,0,0,1,7.9.42c12.85,3.87,18.15,12.54,27.45,18.78a25.26,25.26,0,0,0,12.65,4.49c3.23.22,6.76-.15,10,0s6.51,1.07,7,2.93c.65,2.71-4.54,5.38-8.18,7.83-7,4.7-9.7,10.72-15.72,15.8a46.65,46.65,0,0,1-20.38,9.49q7,1.35,14.19,2.43a53.54,53.54,0,0,0,8.51-6.09c2.84-2.52,6.14-5.64,10.86-6.05,4.87-.42,7.2,2.37,9.89,4.3,5.39,3.82,16.11,4.67,25.56,2,4.14-1.16,8.08-2.91,12.35-3.46a20.55,20.55,0,0,1,11.21,1.64c2.38,1.13,3.19,2.53,5.28,3.69a32.58,32.58,0,0,1,5.7,3.9A19.79,19.79,0,0,1,284,452.9c4.68-.4,9.35-.9,14-1.47-6.33-1.4-10.91-4.3-15-7.3s-8-6.31-13.5-8.52c-4.65-1.88-11.48-2.84-17.39-.61-2.76,1-4.85,2.58-7.48,3.72-8.09,3.54-18.84,1.77-22.37-2.51s-1.32-10.1,2.6-15.31a57,57,0,0,1,12-11.44c4.64-3.36,10.25-6.63,12.38-10.49,2.69-4.8-.63-9.18-.05-13.92a4.32,4.32,0,0,1,2.67-3.61,14.22,14.22,0,0,1,4.17-.94l17.7-2.11c3.4-.42,7-.82,9.85-.11,2.69.67,4.13,2.26,5.59,3.71,8.3,8.26,21.1,14.62,36.7,18.23,3.72.86,7.76,1.62,10,3.48s1.64,5.23-2.38,6.83c-3.1,1.23-7.28,1.06-10.76,1.92-4.56,1.13-4.42,2.45-3.79,3.78,1.7,3.58,4.53,7,7,10.44,2.66,3.77,5.76,7.71,3.82,12a20.8,20.8,0,0,1-7.22,8.93c6.08-1.17,12.11-2.48,18.05-3.95.92-1.18,2.46-2.28,5.65-2.64a12.56,12.56,0,0,1,3.8.15q5.79-1.62,11.47-3.43c-.58-.37-1.14-.74-1.69-1.13-8.06-5.83-11.85-13.79-10.61-22.22.28-1.86.78-3.77.11-5.47-.56-1.42-1.92-2.65-1.78-4.18.15-2.52,4.18-4.88,7.78-6.83L368,391.07c8-4.29,16.8-9.65,16.31-15.06-.26-3-3.47-5.26-7.16-7a9.66,9.66,0,0,1-3.49-2.15c-.73-.92-.48-2.28,1.1-3.15,2.53-1.39,5.88-.52,8.61,0a30,30,0,0,0,14.39-1.23,30,30,0,0,1,4.25-1.34,10.09,10.09,0,0,1,7.21,1.28c1.64,1.11,2.48,2.57,3.68,3.87,4.32,4.73,13.18,7.59,23.33,7.48h3c6.45.65,12.56,2,16.61,4.71a11.47,11.47,0,0,1,2.56,2.24q4.71-5,8.71-10.2c-1.15-2.36,1.24-5.09,2.58-7.69,3.93-7.73-1.94-14.88,2.91-22.64,1.31-2.06,4.17-4.48,10.06-5.53a28.7,28.7,0,0,1,3.31-.39q.93-3.17,1.62-6.36C480.69,327.63,472.68,329.05,467.51,332.51Zm-109-133c9.46-.92,16.2,3.14,19.85,7.54s5.73,9.59,12,12.73c7.2,3.61,18.42,3.79,28.7,4.44s21.16,2.33,24.81,7.61c1.22,1.76,1.13,4.29-1.91,5.8a13.13,13.13,0,0,1-8.41.61c-2.45-.59-4.44-1.63-7-2.13a9.3,9.3,0,0,0-3.83,0,5.26,5.26,0,0,0-4.21,3.81c-.24,1.47.24,2.89-.43,4.37-1.54,3.48.25,6.92-4.28,9.78-3.22,2-8,3-12.17,2.93a52.46,52.46,0,0,1-11.48-1.61q-11.92-2.62-23.86-5.25c-5.74-1.26-12.07-3-12.43-6.76-.36-3.57,5-7.63,3.91-11-.82-2.57-5.12-3.88-9.44-4.51s-9.13-.85-12.68-2.21c-5.34-2.07-6.76-6.56-4.52-10.79s7.61-8.12,13.83-11.13A41.19,41.19,0,0,1,358.52,199.55ZM217,352.48c1.92,1.92,1.43,4.78-2.5,6.33s-9.57.89-13-.14c-4.88-1.48-7.64-4.48-8.57-7.79s-.08-6.91,1.22-10.47c1.8-5,4.54-10.34,1.53-14.45-1.35-1.81-3.71-3.22-6.29-4.41a63.42,63.42,0,0,0-17.5-4.87c-6.55-.92-13.76-1.11-19.64-2.73-7.11-1.94-11.88-6.24-10.79-11.29s9-10.53,17.75-11.54c7.43-.86,15.26,1.11,21.73-1.86,4.44-2.05,6.53-5.92,11.63-7.05a12.08,12.08,0,0,1,8.85,1.48c3.1,1.92,4.74,4.63,4.57,7.56s-1.95,5.88-2.75,8.81a17.12,17.12,0,0,0,.27,9c1,3.68,3.15,7.49,8.81,8.94,7.93,2,20.81-1.12,26.25,2.63,3.83,2.63,1.53,7.35-2.57,10.94s-9.78,6.67-13.63,10.33a19.51,19.51,0,0,0-5.61,9.43A1.56,1.56,0,0,0,217,352.48Zm-42.13-79c-5.87-4.34-8.91-10.06-8.66-16.2a13.69,13.69,0,0,1,4.06-9.45,24.17,24.17,0,0,1,13.54-6.51,22.15,22.15,0,0,1,15.47,3.3c3.58,2.44,5.69,5.57,8.73,8.27a37.52,37.52,0,0,0,13.24,7.14,40.74,40.74,0,0,0,16,2c7.41-.57,14.68-3.33,22.1-4.51,7.81-1.24,15.7-.64,21.34,1.62,4.59,1.86,7.7,5.28,5.18,8.91-3.73,5.36-14.79,8.09-23.15,11.67a18.75,18.75,0,0,1-2,.52A92.37,92.37,0,0,1,239,283.38c-5,.09-10.65-.11-15,2.05a29.62,29.62,0,0,1-3.63,1.91c-4,1.46-8.08-.45-9-2.7s-.26-4.95-2.14-6.88c-2.73-2.79-9.83-3-16.1-2a52.7,52.7,0,0,1-9.1,1.08A15.73,15.73,0,0,1,174.82,273.5Zm57.71,36.81c-4.08-.18-8.47,0-12.19-.66-5.64-1-9.2-4.26-8.8-8s4.7-7.72,10.73-10c4.59-1.71,9.76-2.35,14.75-3l40.07-4.9c7.66-.94,15.6-1.93,22.69-4.54,3-1.12,5.82-2.51,8.88-3.58,4.65-1.62,7.53-2.75,12.3-2.68,0,0,1.66.17,2.15.28,5.2,1.2,8.08,4.5,8.05,8s-3.81,7.54-9.64,9.53a49.17,49.17,0,0,1-9.3,1.91l-15.09,2.12c-6.74.93-13.65,1.91-20,4s-12.21,5.61-13.87,9.5c-.94,2.24-1,5-4.55,6.33s-7.16-.08-10-1.21A49.47,49.47,0,0,0,232.53,310.31Zm37.72-1.06a4,4,0,0,1,1.38-1.48c4.18-3.11,10.55-5.06,16.68-6.22s12.38-1.67,18.53-2.76a92.09,92.09,0,0,0,30.46-11c1.5-1.55,2.58-3.38,4.66-4.74,4.18-2.76,11.23-2.82,15.51-1.29s6.78,4.2,10.21,6.26c4.06,2.45,9.39,4,14.22,6s9.28,4.39,10.77,7.84-.77,8.13-6.68,10.7c-3.6,1.56-8,2.14-11.68,3.59-9.61,3.73-12.82,12.25-23.22,14.65-8.08,1.86-15-1.47-17.75-5.43s-3.15-8.71-7.31-12.1a12.81,12.81,0,0,0-8.26-2.74c-5.64,0-11,3-16.1,5.2-5.49,2.35-12.18,4.08-17.87,3.46-6.8-.74-10.17-4.52-12.9-8C270.46,310.55,270,310,270.25,309.25Zm91.2-36.76c-7,.45-14.67,4.36-20.76,3.17-6.47-1.25-5.52-7.39-11.71-9-4-1-9.44.27-13.79,2.07s-8.11,4.11-12.6,5.71-12.24,3.63-15.64,3c-1.87-.37-1.68-1.64-1.48-2.08,1.74-4.09,12.54-7,12.89-11,.14-1.57-1.13-2.87-2.51-4-4.61-3.85-10.75-7.07-13.6-11.59s-1.39-11,6.53-14.75c7.63-3.61,17.85-3,24.23-.42s10.07,6.79,14.89,10.32c9.47,6.87,23.62,11.39,39.8,12.69,4.38.36,8.91.49,13.09,1.12a32.26,32.26,0,0,1,9.94,3c3.39,1.74,5.77,4.26,5.38,7.21s-4.15,6.31-9.25,7.49C377.47,277.58,370.85,271.88,361.45,272.49ZM216.34,189.85c5.94-5.58,18.6-8.95,27.7-7.39,9.31,1.6,13.64,7.34,22.43,9.48,5.67,1.4,13.06,1.1,19.74-.77,7.27-2,13.23-5.73,19.45-8.94s13.75-6.28,21.12-6.33a31.41,31.41,0,0,1,8.4,1.2c6.3,1.74,11.45,4.74,13.07,8.81s-.67,9.26-6.76,12.85c-2.09,1.24-4.51,2.25-6.74,3.4-7.5,3.85-12.5,9.33-13.28,14.49s2.73,9.87,9.25,12.47c4,1.61,9.73,1.72,13.87,3.22,4.38,1.58,2,4.45,1.37,7a2.5,2.5,0,0,1-1.09,1.71c-1.53,1-4.06.76-5.72.25-12.62-3.9-15.65-15-30.62-16.29-5.09-.44-10.93.37-15.64-.55-5.59-1.08-8.33-4.33-11.35-7.16a17.81,17.81,0,0,0-13.82-5.22c-7.67.44-14.35,5.1-22,6.65a31.39,31.39,0,0,1-21.31-3.55c-6.6-3.65-11.44-8.49-12.35-14.22C211.45,197.4,212.54,193.38,216.34,189.85Zm-.08,29.55c3.93,2.35,7.86,4.69,11.75,7a12.82,12.82,0,0,0,5.74,2.12c6,.47,11.63-3.72,17.52-6a30.33,30.33,0,0,1,15.09-1.76,27.41,27.41,0,0,1,10.34,3.88c3.27,2.16,4.5,7,2,10.23s-6.69,6.33-7.07,9.56c-.21,1.71.6,3.48-1.2,5.06-2.78,2.4-8.41,2-13,2.85-4.78.86-8.85,3.28-13.52,4.49a27.14,27.14,0,0,1-17.83-1.53c-4.43-2.21-7-5.43-9.44-8.57s-5-6.37-9.52-8.54c-3.78-1.82-8.83-2.86-11.86-5.12-4.64-3.5-2.82-9.8,4-13.79a18.77,18.77,0,0,1,8.09-2.59C211.19,216.53,213.9,218,216.26,219.4ZM93.71,199.9a55.31,55.31,0,0,1,27.54.29c7.5,2,15.11,5.21,24.25,3.22,8.52-1.85,13.81-7.32,17.47-12.16s7.81-10.31,15.89-13.05a31.17,31.17,0,0,1,16-.92c4.33,1,7.67,2.58,9.53,4.45,1.57,1.58,2.09,3.33,1.23,5-.94,1.88-2.71,3.69-3.95,5.55-2.17,3.21-2.73,6.57-1.65,9.53,1.22,3.17,4.24,6.31,1.54,9.74s-10.45,5.48-13.67,8.95c-3.37,3.62-.64,7.51-3.34,11.25s-11.33,6.35-16.87,5-6.8-5.35-11.38-7.37c-3.95-1.74-10.28-1.74-15.64,0-1.78.58-3.4,1.31-5.22,1.74-6.51,1.56-11.68-1.22-15.75-3.57-4.27-2.48-9.46-4.79-16.25-4.66-2.66,0-5.44.46-8,.34A23.65,23.65,0,0,1,86.92,221c-4.19-1.8-8.35-3.91-9.32-7.07C76,208.78,84.17,202.41,93.71,199.9ZM85,254.57a53.42,53.42,0,0,1-7.32-.19c-8-1.14-9.71-7.3-6-12.39,3.4-4.67,10.34-8.85,18.34-11s16.78-2.28,23.21-.29c4.22,1.3,7.32,3.4,10.47,5.4,3.42,2.15,8.57,4.31,14,2.55,3.23-1,5.83-3.27,9.19-3.48a8.27,8.27,0,0,1,4.62,1.14c4,2.14,6.47,5.17,7,8.58,1,6.16-4.15,13.06-3.46,19.28.52,4.76,4.5,8.81,10.36,11.58,2.18,1,4.68,1.94,6.19,3.34s1.77,3.53-.42,5.18c-2.44,1.84-6.73,2.31-10.21,2.23s-7-.48-10.61.38c-4.46,1.1-9.07,4.85-11.38,6.75-.54,2.95-1.13,6-3.53,8.86a19.47,19.47,0,0,1-12.28,6.12c-7.55.74-11.86-3.33-13.78-7.18-3.74-7.48-4.09-15.93-1.07-24.43,1.65-4.57,4.27-9.36,2.62-13.48C108.43,257.22,96.67,254.49,85,254.57Zm-.28,85.18c-12.85-1.21-19.77-7.95-25.56-14.25-3.93-4.27-7.89-8.76-7.78-14.07s5.56-11.69,14.7-14.25A33.93,33.93,0,0,1,83,297a34.83,34.83,0,0,1,11.89,5.81c4.13,2.95,8,5.47,11,8.93,3.45,2.68,10.83,3.3,17.18,1.42a40.42,40.42,0,0,1,3.91-1.09c5.31-.91,8.29,2.07,11.12,4.21,4.3,3.22,11.44,5,19.31,4.84,5-.11,10.32-.95,14.77-.21s7.26,4,3.65,6.52c-4.21,2.89-11.55,1.55-17.06,3.46-2.38.83-4.3,2.24-6.81,2.82-3.48.79-6.53-.27-9.17-1.19a49.19,49.19,0,0,0-19.47-3c-9.9.57-19.62,4.48-28.42,8.38a24,24,0,0,1-5,1.78A17.83,17.83,0,0,1,84.67,339.75Zm156.17,56.58a18.7,18.7,0,0,1-10.66,8.8,33.29,33.29,0,0,1-10.94,1.61c-15.27,0-25.19-6.63-33.72-12.86L163,377.42c-6.9-5-14.88-10.39-27.14-10.52-9.51-.1-20.14,3-29,2C96.45,367.67,92,361,93.6,354.51c1.21-4.75,5.48-9.92,12.84-13.08a47.39,47.39,0,0,1,8.57-2.61c3.43-.76,7.15-1.28,10.15-.71a27.78,27.78,0,0,1,5.56,2.12c6.72,2.74,17.55,2.33,26.09-1,3-1.15,5.69-2.62,8.91-3.38,6.23-1.47,12.33.35,14.93,3.24s2.49,6.59,2.41,10.16-.11,7.27,2.57,10.13c2.52,2.72,7.26,4.36,11.91,5.89a33,33,0,0,0,11.23,2.11c4-.07,8.31-1.22,12.27-1.14a18,18,0,0,1,9.78,3.07c3.75,2.51,4.19,3.56,6,7a7.06,7.06,0,0,0,.67,1.39,16.66,16.66,0,0,1,1.49,3.12C241.4,386.36,244,390.14,240.84,396.33Zm48-40.1c-.57,2.21-.48,4.4-1.64,6.61-2.61,5.12-11.92,9.39-20.79,10.41a40,40,0,0,1-22.8-3.76c-5.74-3-9.29-7.22-12.26-11.52-2.73-4-4.89-8.85-.45-13.37s13.9-7.22,17-11.83c2.27-3.29,1.2-7.35,6.31-9.6a15.32,15.32,0,0,1,9.52-.47c2.75.74,4.84,2,7.38,2.91,8.16,2.87,21.27,1.42,30.06-3.34,3.41-1.85,6.71-4.29,10.92-4.72,3.46-.35,6.25.9,7.57,2.53s2.63,3.81,4.15,5.36c2.08,2.19,7.66,5.1,9.57,7.4a9,9,0,0,1,1.62,5.16c-.14,2.07-2,4.43-3.95,6.44a16.61,16.61,0,0,1-5.54,4c-4.92,2.07-10.78,1.37-15.7.63s-10.92-1.28-15.66,1A9.42,9.42,0,0,0,288.86,356.23Zm118.41-7.13c-.56,2-3.61,3.73-6.43,5.24-4,2.14-8.58,4.43-13.4,4.63-5.53.24-9.33-2.38-14.84-2.26-6.33.15-12.88,4.76-11.48,8.11.8,2,3.74,3.25,6,4.7a13.48,13.48,0,0,1,5.31,5.79,6.76,6.76,0,0,1-1.07,7.44c-1.75,2-4.76,3.76-7.81,5.33a57.06,57.06,0,0,1-14.43,5.51c-9.89,2.06-19.17,0-26.85-2.56a136,136,0,0,1-25.1-11c-3.72-2.12-7.36-4.63-7.24-8,0-1.66,1-3.38,1.64-5.07,1-2.63,1.39-5.28,3-7.89a15.41,15.41,0,0,1,9.46-6.36c7.34-1.7,13.42,1.66,20.82,1.11,5.16-.38,10.5-2.9,12.48-5.87,1.4-2.12,1.18-4.24,1.77-6.37a8.36,8.36,0,0,1,6.1-5.61c2.38-.67,4.92-.5,7.4-.91,8.61-1.39,12.67-8.53,21.11-10.7a6.63,6.63,0,0,1,2.15-.25,1.73,1.73,0,0,1,1.64,2c-.08,4.09-2.26,9.09,2.62,11.47l.29.54c3.41,2.53,8.26,4.37,13.89,5.25a73.94,73.94,0,0,1,8.79,1.45C405.78,345.64,407.82,347.18,407.27,349.1ZM387.54,336a9,9,0,0,1-3.28-7.75c.24-4.71,3.35-9.75,8.67-14.09,3.37-2.75,7.65-5.28,9.86-8.28,3.54-4.8.8-9.67-4.55-12.61s-12.87-4.34-20.2-5.69c-3-.57-6.46-1.51-6.2-3.5.21-1.67,3.18-3.24,6.08-3.92s5.9-.76,8.86-1.17a36.6,36.6,0,0,0,16.57-6.41l.6-.74c-.84-2.55-1.18-5.34.65-8.1s6.29-5.45,11.08-5.86c5.51-.48,9.26,2,10.83,4.77a10.17,10.17,0,0,1,0,9.77c-1.27,2.57-3.45,5.41-1.75,7.49s6.88,2.35,11.4,2,9.43-1.08,13.26-.2c5.16,1.18,6.53,4.85,6.78,8.27a7.47,7.47,0,0,1-2.69,6.89c-1.33,1.11-3.21,2-4.75,3.05-7.13,4.69-6.72,10.86-8.28,16.45-2,7.18-8.77,14.91-19.91,19.59S393.86,341.18,387.54,336Z" style="fill: rgb(255, 255, 255); opacity: 0.7; transform-origin: 250.028px 310.115px;" class="animable"></path></g></g></g><g id="elainuudtwb6g"><g style="opacity: 0.2; transform-origin: 249.535px 308.648px;" class="animable"><path d="M429.41,405.29a94.39,94.39,0,0,0-10.91-3.89c-3.22-.84-7.56-1.22-11,.34A9.3,9.3,0,0,0,403.1,406a18.91,18.91,0,0,0-2.4,7.37c-.25,2.51.12,5-.48,7.5a11.08,11.08,0,0,1-.56,1.65q4.08-2,8.06-4.11c.39-1.49.81-3,1.26-4.48a12.25,12.25,0,0,1,1.49-3.51,5.12,5.12,0,0,1,3.14-2.23,4.47,4.47,0,0,1,1.88.25c1.84.51,4.39.91,7,1.42Q426,407.6,429.41,405.29Z" style="fill: rgb(255, 255, 255); transform-origin: 414.535px 411.595px;" id="elubzf6dtcdv9" class="animable"></path><path d="M39.72,263.58c8.39-2.11,17.86-5.17,21.05-10.09,3.46-5.27-2.13-9.66-5.56-14-3.26-4.1-4.55-9.16-1.72-14.12q-5.46,4.74-10.22,9.67a14.06,14.06,0,0,0,1.65,4.35c1,1.76,2.45,3.23,3.39,5.08a7.38,7.38,0,0,1,.28,6.5c-1.63,3.54-5.89,5.55-9.55,6.36-4.21.93-8.31,1-12.53,1.8-.72.15-1.45.34-2.18.55a107.48,107.48,0,0,0-6.17,12.14C23.16,267.77,31.89,265.57,39.72,263.58Z" style="fill: rgb(255, 255, 255); transform-origin: 40.0095px 248.595px;" id="elao5q3qkbin" class="animable"></path><path d="M165.69,445.09q5.75,1.32,11.58,2.44a33,33,0,0,0-10-2.34Z" style="fill: rgb(255, 255, 255); transform-origin: 171.48px 446.31px;" id="elga6004q7mg6" class="animable"></path><path d="M475.26,358.54c-2.33.55-4.73,1-7.06,1.34-7.38,1.11-14.19-.68-20.71-2.21-6-1.42-11.89-3.05-18.09-4-2.32-.37-4.59-.45-6.55,2.19-1.49,2-1.19,4.42-3.32,6.21-2.78,2.32-8.63,2.66-11.84,1.37s-4.54-3.61-6-5.76c-6.24-9-17.26-16.4-31.57-21.19-2.52-.84-5.26-1.67-6.42-3.23s-.54-3.72.18-5.68q1.83-5.1,3.66-10.22a4.49,4.49,0,0,1,1.63-2.41c1.52-1.11,4.06-1.45,6.24-1.54,8.21-.34,15.8,1.58,24.12,0,6.69-1.23,12.36-4.47,18.16-7.15a116,116,0,0,1,19.83-6.94c9-2.26,19.07-3.51,26.51-1.5s10.48,8.24,4.35,12.92c-2,1.51-4.67,2.72-6.45,4.31-3.85,3.41-2.19,7.36,1.06,10,3.84,3.2,9.47,5.42,14.76,7.8a57.59,57.59,0,0,1,7.47,3.9c.57-1.77,1.07-3.56,1.54-5.34a42,42,0,0,1-5.52-2.79c-2-1.21-4.44-1.68-6.39-3.05-2.4-1.68-3.81-4-2.84-6.48s4-4.74,6-7.13c4.54-5.45,3.07-11.64-3.55-14.75-3.34-1.56-8.18-2.9-7.44-5.71s6.1-4.63,10.48-6.28a75.38,75.38,0,0,0,8-3.55c-.82-2.65-1.76-5.3-2.83-7.92-3.68,4.66-10.31,8.16-15.32,10.14-8.8,3.47-19.22,5-27.37,9.08-4.24,2.1-8.86,5.09-13.56,4.72-3.22-.27-4.81-2.13-5.07-4s.35-3.93,0-5.8c-.63-3.08-4-5.41-7.79-7.3-10.8-5.37-25.82-8.43-32.52-15.85-1.2-1.31-2.07-2.95-.73-4.56,2.78-3.38,11.3-3.18,16.34-5.74,5.21-2.66,4.51-6.88,3.24-10.15s-2.63-6.57-3.94-9.86c-.93-2.36-1.88-4.74-1.39-7.32s2.64-5.41,6.55-7.19c5.61-2.54,12.69-2.13,18.2-1.05a40.75,40.75,0,0,1,11.54,3.75c15.47,8.51,5.66,27.23,20.62,36a21.3,21.3,0,0,0,12.51,2.68c3.83-.34,7.71-1.64,11.5-2q-2.44-4.11-5.3-8.16a20.79,20.79,0,0,1-8.29-1.08c-7.9-3.3-8.08-14.06-12-21.44-.09-.16-.19-.32-.28-.49q-6.42-5.85-13.86-11.39c-.75-.33-1.51-.64-2.27-.94-6.83-2.6-14.31-4-21.37-6.27-.95-.32-2-.69-2.3-1.61-.47-1.24.39-4.09,1.57-6.8a279,279,0,0,0-54.11-22.59c-3.67.19-7.38.51-11.06.78a2.58,2.58,0,0,1-1.51-.19c-.75-.48-.54-1.68-.37-2.69.09-.5.16-1,.21-1.49-2.28-.6-4.57-1.16-6.87-1.71a10.86,10.86,0,0,1-.35,3.28,11.14,11.14,0,0,1-6.7,7.6c-2,.89-4.37,1.39-6.27,2.33a10.18,10.18,0,0,0-4,3.53c-2.73,4.24-1.37,8.74,3.44,11.25,2.55,1.31,5.91,2.1,8.71,3.24a18.25,18.25,0,0,1,6.28,4c1.94,2,2.62,5.11-1,7.12a20.59,20.59,0,0,1-5.84,1.83c-9.37,1.95-20.54,3.74-26.39.39-4.29-2.47-3.88-6.85-6.41-10.14-1.47-1.92-3.9-3.43-6.55-4.77-9.41-4.81-21.75-7.8-35.36-8.58-4.77-.26-10.27-.48-12.32-2.78-1.2-1.36-.87-3.15-.5-4.85,1.09-5.23,3.45-10.91,8.49-14.65,2.33-1.74,10.65-5.68,9.14-8.7-5.17-.16-10.36-.21-15.54-.17a11.41,11.41,0,0,1,3.21,1.14c.68.4,1.21.91,1.21,1.53-.05,1.66-3.5,2.9-6,4.11a12.51,12.51,0,0,0-5.74,5,18.11,18.11,0,0,1-1.36,2.86,5.74,5.74,0,0,1-3.72,2.15c-2.3.35-3.77-.76-5.39-1.44-6-2.58-16.58.22-23.84-1.25a29.5,29.5,0,0,1-6.43-2.38c-4.94-2.2-10.48-4-15.79-5.91q-5.12.9-10.18,2a53.09,53.09,0,0,1,15.61,6c5.41,3,11,6.55,19.33,6.59,5.71,0,11.94-1.61,17.5-1.28,8.66.55,12.52,6.83,7.18,11.77-2.09,1.95-5.13,3.52-7.9,5.2-5.48,3.33-10.06,7.26-11.89,11.38s-.65,8.4,4.14,10.72c2.72,1.32,9.79,2.06,7.49,4.26-3.66,3.49-12.51.47-18.3-.3a48.16,48.16,0,0,0-14,0c-6.44,1-13.22,2.89-19.26,2-4.37-.6-10.08-2.21-11.24-6.67-.93-3.61,1.54-7.82-.11-11.23-2.19-4.5-10.71-6.23-18.55-7.45s-16.49-2.66-19.34-7c-1.92-2.91-.69-6.67,2.37-9.94.37-.4.77-.8,1.18-1.19Q120,186.31,113.59,189a18.51,18.51,0,0,0,.87,9c1,2.48,2.54,5.16,1,8.07-1,2-3.17,3.32-5.13,4.48-2.5,1.49-5.18,3-7.77,3.11-3.11.13-5.26-1.87-7.42-3.55a40.39,40.39,0,0,0-11.74-6c-1,.56-1.91,1.11-2.85,1.69q-9,5.44-16.79,11.32a31,31,0,0,1,15.32-2.83c5.47.55,9.13,2.95,12.24,5.37,1.83,1.43,3.62,3,3.89,4.9.2,1.49-.53,3.09-.6,4.63-.22,3.92,3.79,6.92,8.08,9.38,4.08,2.35,8.88,5.34,6.18,9.09a31.71,31.71,0,0,1-3,3c-3,3.1-3,6.75,0,9,3.5,2.65,10.48,3.42,12.76,6.57s-2.15,8.16-8.7,9.74S96.7,276,90.43,278c-6,1.86-9.41,6.28-15.5,7.89-5.93,1.56-11.37-.19-16.88-.89a49.43,49.43,0,0,0-16.49,1c-3.23.71-6.36,1.73-9.62,2.28a18.41,18.41,0,0,1-8.71-.71A15,15,0,0,1,15.51,282a7.1,7.1,0,0,1-.68-1.31,95.8,95.8,0,0,0-2.52,9.5c3.84,1.46,7.31,3.4,7.6,6.24s-2.64,5.83-3.74,8.78c-1.68,4.51,1,8.61,4.45,12.12s7.57,6.78,9.08,10.91a6.81,6.81,0,0,1-1.34,7.12c-2,2.35-5.76,4.18-9.1,6.07-.77.44-1.54.88-2.31,1.35.83,2.11,1.75,4.22,2.73,6.31,1.38-1.08,2.88-2.12,4.41-3.1,5.57-3.6,11.94-7,15.49-11.24,3.25-3.85,3.75-8.12,1.33-11.39-3.7-5.08-13.64-7.58-16.41-12.95s3.12-12.57,12.78-16a50.59,50.59,0,0,1,19.31-2.48A53.2,53.2,0,0,1,81.22,299c5.1,3.07,9.09,7.46,6.15,12.3-2.69,4.44-10.75,8.29-11.53,12.72-.67,3.72,4.16,6.26,9,8s10.53,3.33,12.41,6.55c1.58,2.72.18,6.09,1,9,2.28,8.64,21.46,10.39,28.21,17.68.89,1,1.33,2.42-.43,3.3a8.15,8.15,0,0,1-3,.63c-4.47.38-9.45,1.74-12.18-.79s-2.79-5.69-5.58-8c-4.51-3.77-12.69-5.8-21.6-5.35s-18.42,3.34-25.1,7.67c-2,1.29-3.74,2.68-5.89,3.89-5.45,3.09-13,4.48-19.59,4.15a145.88,145.88,0,0,0,15.19,16.65C58.8,394,75,393.87,82.58,403.6c2.73,3.49,4.09,7.94,5.39,12.43a263.5,263.5,0,0,0,33.94,15.82c1.61-.91,2.72-1.46,2.72-1.46,4.24-2,6.73-5.27,6.11-7.93a2.74,2.74,0,0,1-.15-1.65,3.89,3.89,0,0,1,1.17-1.31c3.56-2.8,10.36-4.16,14.75-3,3.66,1,5.42,3.37,9.05,4.37,3.83,1,8.9.32,13.6-.41a52.33,52.33,0,0,1,9.6-.9c3.11.1,6,.92,6.91,2.54s-.34,3.7-.48,5.58c-.23,3.45,3.57,6.12,8.47,7.51s10.83,1.67,16.66,1.94,11.73.59,16.63,2a20.52,20.52,0,0,1,7.73,3.93,2.61,2.61,0,0,1,1.23,2.23,4.81,4.81,0,0,1-1.39,2.09c-1.38,1.52-2.76,3-4.14,4.58-.56.61-1.12,1.22-1.72,1.82,2.88.15,5.78.28,8.67.37,3.36-2.55,6.58-5.28,7.91-8.17s.32-6.12-3.69-7.35c-2.24-.67-5.13-.69-7.47-1.29s-4.12-2.16-2.62-3.73c1-1,3-1.65,4.83-2.1,14.78-3.63,31.09-3.09,44.5-8.71,7.67-3.23,13.22-8.06,20.92-11.27,9-3.79,20.61-4.81,28.72-2.52a27,27,0,0,1,9,4.47c3.87,2.86,6.69,6.46,6,10.57s-5.62,8.74-12.66,10.52c-5.95,1.5-11.85.76-17.62.53a102.23,102.23,0,0,0-16.85.7c-4.82.59-9.89,1.57-13.94,3.6-6.76,3.36-9,8.81-7.61,13,.12.33.25.66.4,1,3.45-.24,6.9-.53,10.33-.86a6.2,6.2,0,0,1,.63-4.43c1.81-3.4,6-5.05,9.58-5.81,13.44-2.8,25.82.59,39.21-1.68,4.74-.82,9.75-2.31,14-1.37a12.86,12.86,0,0,1,2.49.87q8.64-2.5,17-5.46a23.25,23.25,0,0,1-6.37-2,15.49,15.49,0,0,1-8.16-9.59v-1.72c.17-5.86-4.78-11-13-13.46a48.74,48.74,0,0,1-6.7-2.13c-1.9-.95-3.13-2.51-2.21-4.16a12.92,12.92,0,0,1,2.32-2.46c2.72-2.7,3.53-5.83,2.13-8.31-.91-1.57-2.42-3.5,0-5a7.84,7.84,0,0,1,5.47-.63,10.63,10.63,0,0,1,3.72,2,21.51,21.51,0,0,0,12.1,4.14c9.38.28,18.66-4.83,26.08-9.42q5.9-3.66,11.76-7.32c3.39-2.08,7.47-4.4,11.84-4.49,2.65-.08,4.78.71,7.25,1a54.5,54.5,0,0,0,9.46-.06c13.57-.66,26.42,1.18,36.28,5.18A127.24,127.24,0,0,0,475.26,358.54ZM331.44,196.24c-.43-4.56,7.2-9.59,15.37-11.39a51.51,51.51,0,0,1,23.21.68A66.68,66.68,0,0,1,392.56,196c4.28,3,8.11,6.47,8.84,10.71a5,5,0,0,1-1.13,4.33c-1.18,1.38-3.26,2.5-5.24,3.61-4.93,2.77-9.66,5.71-13,9.07s-5.3,7.19-4.14,10.42c1.23,3.46,5.71,5.85,8.17,8.93s1.91,7.94-4,10.33a29.82,29.82,0,0,1-5.87,1.45A42.68,42.68,0,0,1,358,254a8.13,8.13,0,0,1-4.81-4.64c-1.41-3.54-.28-8.11.75-12.39.94-3.91,1.83-8.19.41-11.47-1.18-2.76-4.12-4.12-5.13-7-.69-2-.37-4.33-.51-6.53C348.09,202.31,332.26,205.34,331.44,196.24Zm-31.59,34.7c5.47-4.24,14.42-6.71,22.64-7.41,11.31-.93,22.8,1.65,24.89,7.62,1.82,5.15-3.6,11.28-3.43,16.77.23,7.08,9.52,11.69,18.23,15.68l28.51,13c10.79,4.92,22.26,10.65,22.27,19.47a8.32,8.32,0,0,1-2.8,6.31c-3.29,3.16-9.42,5.16-15.24,6.16-10.71,1.85-17.26.33-26.85-1.07-2-.29-4.36-.57-5.41-.86-.54-.15-2.4-.38-2.4-.38-6-1.06-7.79-1.31-12.14-3.48-2.8-1.42-5.18-3.27-5.3-5.64s1.84-4.76,2-7.09-1.76-4.53-3.65-6.48c-2.65-2.68-5.5-5.42-10.21-6.88-4.95-1.54-11.37-1.52-17.54-1.48s-12.6.09-17.6-1.39-8.16-5-5.6-8.62c1.32-1.86,3.86-3.44,5.85-5.15,5.76-4.92,6.47-11.18,1.73-15.06-1.29-1.05-2.95-2-3.67-3.2-1-1.74-.08-3.89,1.22-5.87A20.17,20.17,0,0,1,299.85,230.94ZM313,348.39c1.28,2.84,2.49,6.22-1.1,9.06a22.4,22.4,0,0,1-6.87,3.2,41.35,41.35,0,0,1-11.16,2.28A40.27,40.27,0,0,1,285,362c-4-1.1-9-4.33-12.83-5.53-2.69-.87-6.49-1.61-9.28-2.39s-5-2.38-4.38-4.37c.74-2.43,5-4.34,8.17-6.31,8.24-5.07,10.75-12.64,5.78-17.36-1.56-1.46-3.76-2.67-5-4.26s-1.45-3.76.82-5.49c3.89-3,10.92-2.33,16.63-3.64,8-1.81,12.83-7.33,20.5-9.84,7.82-2.56,16.21-1.31,23.14.27,7.45,1.71,14.69,3.76,19.95,7.07s8.32,8,6.53,13.17-9.18,10.49-18,12c-3.84.67-7.63.61-11.46.94s-8.07,1.2-10.78,3.09C310.81,342.08,311.72,345.57,313,348.39ZM158.88,297.2a33.68,33.68,0,0,0-12.37-7.64c-4.67-1.76-10.09-3-14.31-5s-7.28-5.28-5.73-8.93c1.35-3.2,6-6.14,11.27-7.82a56,56,0,0,1,16.39-2.35c10.63-.14,20.53,1.62,28.05,5,2.89,1.3,5.56,3,5.73,5.34.13,1.69-1,3.49-1.86,5.25-1.65,3.62-1.33,7.72,3.51,9.29,3.34,1.09,8,.72,11.92,1.24s7.19,2.88,4.67,5.2a27,27,0,0,1-3.3,2.1c-3.75,2.49-3.41,5.74-3.57,8.64-.24,4.12-2.07,8.43-5.34,12.52a7.3,7.3,0,0,1-.89,1.13c-6.22,4.83-10.94,11.21-20.23,13.36-6.28,1.46-12.21-.34-15.42-3a9.76,9.76,0,0,1-2.82-12.32c2-4.28,6.83-8.48,7.82-12.76C163.22,303,161.5,299.87,158.88,297.2Zm53.82-35.8c1.75-5.07,11.24-9.62,20-10.24s16.19,2.12,19.57,6.23c2.8,3.39,3.12,7.56,4.72,11.33a24.41,24.41,0,0,0,8.43,10.11,21.89,21.89,0,0,0,7.64,3.63c7.12,1.74,16.42.16,25-.88a88,88,0,0,1,18.14-.71c5.73.54,10.93,2.13,13.48,4.95,1.79,2,3,5.22.25,7.49s-7.65,2.54-11,1.44a7.9,7.9,0,0,0-2-.12,68,68,0,0,0-16.34,3.24c-6.34,2.22-11.66,5.5-17.89,7.87s-14.39,3.7-18.94,1.48c-6.51-3.14-1-10.57-4.56-15.15-2.51-3.27-9.12-4.51-15.5-5.09a87.09,87.09,0,0,0-15.52-.15c-5.09.46-10.28,1.5-15.27,1.59s-9.77-.86-13.09-2.64c-2.26-1.21-3.91-3.09-2.57-5.12,2-2.94,8.66-4.15,12.21-6.71C214.63,270.22,211.21,265.69,212.7,261.4Zm-12.61,68.07c2.84-7.72,5.65-15.42,8.49-23.14,1.06-2.88,2.17-5.86,5.15-8.51,3.89-3.48,10.84-6,17.27-6.19s12,1.82,13.79,5.07c1.19,2.15.83,4.68,1.15,7a14.5,14.5,0,0,0,5.56,9.35c1.95,1.63,4.42,3.69,2.09,5.76s-7.08,2.09-11,2.63a30,30,0,0,0-16.45,8c-3.66,3.67-5.36,7.66-7,11.55l-3.67,8.71a14.67,14.67,0,0,1-3.3,5.37c-3.46,3.37-10.48,5.55-16.52,5.57S184,359,181.87,356a7.49,7.49,0,0,1-.48-1.24c-.13-2.76,1.83-4.42,4.64-7.1,1.86-1.77,4.25-3.38,6.19-5.13C196.75,338.48,198.47,333.89,200.09,329.47Zm-1.44,37.45c2.35-1.2,5.52-1.82,8.21-2.69,8.91-5,15.69-11.18,19.13-17.58,1.88-3.55,2.78-7.14,4.77-10.7a22.91,22.91,0,0,1,10.78-9.63,9.15,9.15,0,0,1,2.57-.8,8.68,8.68,0,0,1,3.24.37c6.06,1.58,12.61,3.53,13.89,7.45,1.08,3.29-1.91,7.15-6,10.32-3.8,3-8.93,6-9,9.3-.05,2.06,2.11,3.68,4.75,4.77,5.87,2.39,14.11,2.63,21,4.22s12.63,5.58,9.41,10.25c-4.16,6-18.91,7.85-25.38,13.4-2.51,2.15-3.52,4.66-6.22,6.74-4.45,3.41-12.54,4.72-18.53,3.86A26.63,26.63,0,0,1,217.65,390c-3.37-2.78-6.15-5.86-10.38-8.21-3.59-2-8.19-3.42-10.84-5.89S193.87,369.34,198.65,366.92Zm24.22-149.53a7.37,7.37,0,0,1,.32-9.77c4.43-5.28,15.5-8.43,24.69-8.49s17,2.22,24.37,4.49c10.91,3.34,22.57,7.34,24.69,14.76a3.57,3.57,0,0,1-.22,3,11.86,11.86,0,0,1-3.09,2.89c-6.75,5.08-13.52,10.7-14.5,16.42-.73,4.23,1.84,8,5.27,11.23,1.59,1.53,3.44,3.29,2.06,5.3-1,1.45-3.44,2.56-4.87,3.93-3.32,3.18-1,7.42-6,9.85-4.3,2.08-10,.48-11.29-2.11s.18-5.66.37-8.52c.29-4.55-2.8-8.67-8.39-11.15-3.69-1.63-8.86-3.36-7.29-6.42a16,16,0,0,1,1.89-2.26c3.25-3.67,2.19-7.93-2.46-9.92-6-1.73-10.35-3.94-15.47-6.32C228.88,222.35,225.05,220.22,222.87,217.39ZM117.71,256.94c-1.15-.71-2.18-1.57-2-2.67.36-1.93,4.25-3.44,6-5.3,3-3.17-.7-6.14-4.41-8.11-3.47-1.82-7.12-3.61-9.37-6-3.44-3.72-3.25-8.81.51-13.41s11-8.62,19.1-10.59c8.81-2.12,19.49-1.16,21.46,3.49a10.51,10.51,0,0,1,.33,4.23c-.13,6.76,4.6,13.55,15.45,15,7.14.95,15.44-.56,23.35-1.51a152.27,152.27,0,0,1,42.31.61c6.67,1.11,13.72,3.6,12.43,8-.89,3-5.62,5.68-10.59,7.08S222.1,249.4,217,249.72c-3.3,1.33-9.8,4-11.69,6.56-1.5,2.06-.8,4.12-.66,6.13a5.85,5.85,0,0,1-3.86,5.9,13.08,13.08,0,0,1-9,.24c-2.43-.88-4-2.32-5.78-3.58-4.8-3.38-11.82-5.68-20.07-6-10.77-.4-22.72,2.58-33.39,2C126.66,260.68,121.42,259.23,117.71,256.94Zm-20.1,72.3c-2.47-1.23-5.39-3.32-6.73-6s-.16-6,3.05-8.71c3.95-3.4,11.22-6.64,10.39-10.11-.33-1.4-2-2.39-3.67-3.32q-6.09-3.36-12.17-6.78c-2.41-1.36-5-2.93-4.64-5.14.26-1.65,2.18-3.34,4.47-4.67,6.92-3.94,17.83-5,23.9-2.31,3.91,1.74,5.7,4.66,8.86,6.84,3.76,2.59,9.33,4.07,14.8,5.5s11,2.89,14.84,5.45,5.53,6.5,2.64,10.29c-2.09,2.7-6.28,5.05-7.76,7.81s-.78,5.87-4.94,7.48c-2.74,1-5.81.57-8.77.69-5.59.22-11,2.64-16.55,4.08S101.34,331.13,97.61,329.24Zm51,79.15c-5,2.62-10.91,1.59-16.94,2.47-2.56.39-5,.12-7.57.25s-5.65,1-6.61,2.44a1.92,1.92,0,0,0,.06,2.2c.85,1.49,2.65,2.64,3.68,4.06s1.12,3.41-1.05,4.85c-2.62,1.76-7,1.81-10,1.1-9.15-2.1-12.07-8.38-13.19-14.32S95.45,399,89.2,394.87c-5.43-3.62-14.4-4.82-22-6.93s-14.67-6-13.06-11.46c.83-2.75,3.77-5.47,7.22-7.83a50.07,50.07,0,0,1,19.27-8c7.33-1.29,15.1-.47,18.69,2.62,2.36,2,2.74,4.82,3.83,7.32a9,9,0,0,0,7.81,5.45c5.9.65,13-2.47,19.13-2.27,6.5.21,9.52,3.87,11.7,7.18,3,4.59,6.06,9.19,9.1,13.78,1.37,2.09,2.78,4.23,2.79,6.63S152.07,406.53,148.56,408.39Zm4.37-26.61c-2.26-9.34-10.08-17.51-22-23-6.12-2.79-13.34-4.92-17.87-8.6s-5.53-9.59.72-14c6.46-4.57,17.73-5.44,25.56-3.77s13.39,5.19,20.07,7.85a16.88,16.88,0,0,0,7,1.45c7-.21,12-6.44,19.06-7.44.77-.12,3-.23,3.6.85,1.12,2-2.4,6.44-5.17,9S177.1,349,174,351.47s-5.35,5.68-3.59,8c2.72,3.57,13.35,3,15.52,6.76,2.06,3.51-4.71,7.94-5.49,12-1.06,5.43,8.81,9.25,5.07,14.68-2,2.94-7.84,5.11-13,5.34a21.38,21.38,0,0,1-12.48-3.11,13.61,13.61,0,0,1-5.19-5.74C153.77,386.93,153.55,384.31,152.93,381.78ZM290.37,412.3c-8.09,6.43-21.48,10.33-33.92,11.49-9.69.91-20.37.67-28.49,4.79-1.8.89-3.37,2-5.29,2.74-3.67,1.49-8,1.64-11.92,1.55-5.92-.14-12.28-.93-14.34-3.91-1.52-2.21-.25-5,.36-7.66s.2-5.56-3.48-6.58-8.51.28-13,1a49.8,49.8,0,0,1-16.93,0c-4.77-.9-9.1-3.06-8.26-6.24.72-2.77,5.36-5.35,10.15-6.4a43.19,43.19,0,0,1,14-.38l1.29-.34c5.49-2.4,9.64-6,11.1-9.57.7-1.71.85-3.44,2-5.11a9.29,9.29,0,0,1,6.79-3.51,6.17,6.17,0,0,1,6.06,3.57c2.34,4.24,4.76,8.57,9.85,11.66S230,404.08,238.28,402c5.2-1.27,9.58-3.74,14.34-5.69a69.59,69.59,0,0,1,24.42-5c4.94-.09,9.77.43,13.41,1.9C299.4,396.89,298.47,405.88,290.37,412.3Zm99.81-41.23c-1.89,3-5.63,5.78-9.53,8.33a34.32,34.32,0,0,1-9.25,4.51,34.21,34.21,0,0,1-22.91-2.45c-2.51-1.32-4.64-3-8.14-3.48-5.8-.8-13.79,3-14,6.63-.22,3.18,4.32,5.37,3.91,8.57-.34,2.79-4.32,5.44-8,7.74-2.61,1.62-5.63,3.39-9.08,3.71a8.79,8.79,0,0,1-7.34-2.38c-1.34-1.52-1.72-3.37-2.52-5.08-1.53-3.25-4.71-6-9.1-8l-.92-.17c-4.13-2.82-12.79-1.56-19.87-1.51-1.5,0-3.2-.14-3.48-1a1.48,1.48,0,0,1,.43-1.24c3.75-4.88,16.12-7.22,18.53-12.19.7-1.43.41-2.9,1.57-4.27,1.73-2.08,6-3.18,9.72-3.53s7.36-.21,11-1c5.15-1.14,9.51-4.22,10.17-7.2.95-4.28-4.86-7.78-1.92-12,1.81-2.59,6.48-4.51,11-5.46s9.1-1.17,13.66-1.76a70.23,70.23,0,0,1,8.79-.95c5.83-.06,10.18,2,13.85,4.18a90.53,90.53,0,0,1,19,14.49C390.12,360,393.75,365.36,390.18,371.07Z" style="fill: rgb(255, 255, 255); transform-origin: 249.535px 308.648px;" id="el3571wbrxrxe" class="animable"></path></g></g><path d="M462.82,398.68c-3.38,1.18-6.29,3.37-9.17,5.48a327.84,327.84,0,0,1-89,46.16,18.25,18.25,0,0,0-5.55,2.57,6,6,0,0,0-2.53,5.3c.44,3.16,3.94,4.79,7,5.71,27.53,8.33,56,5.52,81.69-7.49A69,69,0,0,0,468.56,436c4.24-6.2,7.16-11.68,8.8-19,.76-3.38,1.41-6.88.78-10.28C476.76,399.3,469.55,396.34,462.82,398.68Z" style="fill: rgb(38, 86, 194); transform-origin: 417.475px 433.259px;" id="elvab4aym5eff" class="animable"></path><g id="elkzi27li2wb"><path d="M462.82,398.68c-3.38,1.18-6.29,3.37-9.17,5.48a327.84,327.84,0,0,1-89,46.16,18.25,18.25,0,0,0-5.55,2.57,6,6,0,0,0-2.53,5.3c.44,3.16,3.94,4.79,7,5.71,27.53,8.33,56,5.52,81.69-7.49A69,69,0,0,0,468.56,436c4.24-6.2,7.16-11.68,8.8-19,.76-3.38,1.41-6.88.78-10.28C476.76,399.3,469.55,396.34,462.82,398.68Z" style="fill: rgb(255, 255, 255); opacity: 0.5; transform-origin: 417.475px 433.259px;" class="animable"></path></g><g id="elwkk23fbly7i"><path d="M472.16,429.5c-3.28.64-6.21,1.53-9.61,1.49s-6.77-.45-10.16-.15a23.84,23.84,0,0,0-10.59,3.57c-4.12,2.61-7.52,6.52-12.16,8a13,13,0,0,1-11.32-1.81,5.74,5.74,0,0,1-2.25-2.68,5,5,0,0,1,.65-4.06c1-1.68,2.67-2.7,3.85-4.2q3-3.81,6-7.63-10.73,6.33-21.9,11.82a11.54,11.54,0,0,1-.4,2.51c-1,3.27-4.52,5-7.77,6.11s-6.84,2-9,4.69c-1.53,1.92-2.05,4.42-3.06,6.65-2.59,5.72-8,9.1-13.75,12a108.56,108.56,0,0,0,11.9,2.08c3-4.08,5.36-8.74,8.41-12.85,3.91-5.29,9.93-9.93,16.45-9.11,5.08.65,9.33,4.48,14.41,5.13,5.88.76,11.3-2.83,16.62-5.43,7.39-3.62,15.76-5.56,23.92-4.47.61.08,1.22.18,1.82.29a54.39,54.39,0,0,0,4.33-5.46,77,77,0,0,0,4.09-6.59Z" style="fill: rgb(255, 255, 255); opacity: 0.3; transform-origin: 421.665px 444.96px;" class="animable"></path></g><g id="el4kmx499nt7b"><path d="M462.82,398.68c-3.38,1.18-6.29,3.37-9.17,5.48-.78.57-1.56,1.12-2.34,1.68a27.67,27.67,0,0,0-2.58,6.6c-1.63,6.58-1.68,13.42-2.22,20.17a10,10,0,0,1-1,4.2,3.59,3.59,0,0,1-3.58,1.95c-1.84-.37-2.69-2.43-3.49-4.13a21.71,21.71,0,0,0-14-11.41q-4.47,2.59-9,5a48.61,48.61,0,0,1,18.69,8.81c2.16,1.66,4.3,3.72,4.76,6.4.53,3.14-1.46,6.22-4,8.18s-5.53,3.14-8.25,4.8a26.43,26.43,0,0,0-9.28,9.82,110.34,110.34,0,0,0,13.05-3.6l10.47-8.74c3-2.53,6.11-5.13,8.06-8.55,2.14-3.77,2.72-8.19,3.38-12.48,2-12.74,5.56-23.89,11.87-34.63A13.91,13.91,0,0,0,462.82,398.68Z" style="fill: rgb(255, 255, 255); opacity: 0.15; transform-origin: 439.815px 432.23px;" class="animable"></path></g></g></g><g id="freepik--Clouds--inject-3" class="animable" style="transform-origin: 114.305px 89.6388px;"><g id="freepik--clouds--inject-3" class="animable" style="transform-origin: 138.79px 101.657px;"><path d="M156.16,89.83l-6.41,3.71a8.24,8.24,0,0,0,.05-.85V90.83c0-3.31-2.32-4.64-5.18-3a10.11,10.11,0,0,0-3.09,3c-.47-4.16-3.73-5.71-7.69-3.42a17.14,17.14,0,0,0-7.75,13.43v2.78a7.32,7.32,0,0,0,.66,3.22l-5.33,3.07a6.35,6.35,0,0,0-2.87,5c0,1.83,1.28,2.58,2.87,1.66l34.74-20.06a6.32,6.32,0,0,0,2.87-5C159,89.66,157.75,88.92,156.16,89.83Z" style="fill: rgb(235, 235, 235); transform-origin: 138.79px 101.657px;" id="el3v3hw75oj3v" class="animable"></path></g><g id="freepik--clouds--inject-3" class="animable" style="transform-origin: 97.79px 83.6261px;"><path d="M122,67.19l-8.93,5.16a9.48,9.48,0,0,0,.08-1.18V68.58c0-4.6-3.24-6.47-7.23-4.17a14,14,0,0,0-4.3,4.14c-.65-5.79-5.2-7.95-10.71-4.76-6,3.44-10.81,11.82-10.81,18.71v3.87A10.13,10.13,0,0,0,81,90.86l-7.42,4.28a8.85,8.85,0,0,0-4,6.94c0,2.55,1.79,3.59,4,2.31L122,76.45a8.85,8.85,0,0,0,4-6.94C126,67,124.21,65.92,122,67.19Z" style="fill: rgb(235, 235, 235); transform-origin: 97.79px 83.6261px;" id="elncgugj80kcq" class="animable"></path></g></g><g id="freepik--Sun--inject-3" class="animable" style="transform-origin: 412.78px 62.72px;"><g id="freepik--sun--inject-3"><circle cx="412.78" cy="62.72" r="26.13" style="fill: rgb(240, 153, 122); transform-origin: 412.78px 62.72px; transform: rotate(-80.78deg);" class="animable"></circle></g></g><g id="freepik--character-2--inject-3" class="animable" style="transform-origin: 256.466px 187.289px;"><g id="el22gtzpfcoy3"><path d="M290.77,193l-41.13,23.74c-15.77,9.11-19.57,21.69-8.46,28.1s32.89,4.22,48.67-4.89L331,216.19c15.78-9.11,19.57-21.69,8.47-28.1S306.55,183.87,290.77,193Z" style="opacity: 0.1; transform-origin: 290.323px 216.466px;" class="animable"></path></g><g id="freepik--Character--inject-3" class="animable" style="transform-origin: 256.466px 187.289px;"><path d="M281.11,236a61.68,61.68,0,0,0,6-2.87c.87-.52,1.55-1.32,2.46-1.83a11,11,0,0,1,3-1.15c1.11-.23,2.25-.3,3.34-.63a14.33,14.33,0,0,0,3.77-2,24.58,24.58,0,0,0,4.7-3.78,5.61,5.61,0,0,1,2.18-1.88c1.11-.37,2.41.13,3.46-.38,1.35-.65,1.62-2.61,3-3.3,1.15-.59,2.82-.06,3.67-1,.45-.53.48-1.3.84-1.89.63-1,2-1.19,3.17-1.42s2.54-.9,2.54-2.1a4.5,4.5,0,0,0,5.25-2.33,12.78,12.78,0,0,0,2.45.26,6.92,6.92,0,0,0,2.48-.7,20.72,20.72,0,0,1,1.95-1,2.4,2.4,0,0,0,1.52-1.51c.46-1.49-1-3-2.58-3.16a6.39,6.39,0,0,0-4.25,1.68,3.08,3.08,0,0,0-2.89-.08,10.11,10.11,0,0,0-2.44,1.73c-9.18,7.81-20.87,11.82-31.81,16.88a27.75,27.75,0,0,0-5.56,3.17c-1.34,1.06-2.49,2.34-3.8,3.44a46.28,46.28,0,0,1-6.37,4.13c-.86.52-8,4.38-6.62,5.61C271.6,240.72,279.84,236.53,281.11,236Z" style="fill: rgb(255, 255, 255); transform-origin: 303.685px 221.664px;" id="elncszu9fqm4b" class="animable"></path><path d="M310.18,185.66a2.34,2.34,0,0,0-1.48.63,13.33,13.33,0,0,1-1.61,1.74c-1,.64-2.35.5-3.21,1.29-.68.62-.85,1.69-1.61,2.23-1,.73-2.52.1-3.65.64s-1.45,2-2.41,2.73-2.5.7-3.68,1.24c-1.54.71-2.35,2.39-3.62,3.51-2.24,2-5.64,2-8.11,3.62-1.41,1-2.41,2.4-3.74,3.47a11.43,11.43,0,0,1-2.73,1.58,21.18,21.18,0,0,0-2.85,1.08c-1.61,1-3.18,2.21-4.81,3.24-3.67,2.33-7.34,4.65-10.9,7.13-1.78,1.24-3.52,2.52-5.22,3.86-.84.67-1.67,1.34-2.48,2a14,14,0,0,1-2.38,2.13,649.08,649.08,0,0,0,67.53-36.52c1.46-.9,2.51-2.14,1.35-3.68A5.71,5.71,0,0,0,310.18,185.66Z" style="fill: rgb(255, 255, 255); transform-origin: 280.378px 206.719px;" id="elpbau3hlxhp" class="animable"></path><path d="M301.8,193.61h0s5.74-8.1,7.78-16.43,3.2-16.55,5.26-18.47,3.74.6,3.68,4.46,10.09-12.41,13.36-12.66c1.59-.11,2.64,2.18,1.67,5.72-1,3.72-4.17,8.79-7,12.27-5.45,6.78-4.73,7.7-3.36,7.63s7.14,1-1,6.77C313.84,188.74,306.86,191.31,301.8,193.61Z" style="fill: rgb(38, 86, 194); transform-origin: 317.862px 172.058px;" id="el2xb2c3ljafo" class="animable"></path><g id="ellaahybxiszh"><path d="M301.8,193.61h0s5.74-8.1,7.78-16.43,3.2-16.55,5.26-18.47,3.74.6,3.68,4.46,10.09-12.41,13.36-12.66c1.59-.11,2.64,2.18,1.67,5.72-1,3.72-4.17,8.79-7,12.27-5.45,6.78-4.73,7.7-3.36,7.63s7.14,1-1,6.77C313.84,188.74,306.86,191.31,301.8,193.61Z" style="fill: rgb(255, 255, 255); opacity: 0.85; transform-origin: 317.862px 172.058px;" class="animable"></path></g><g id="el3xakg9oy6z8"><path d="M305.79,189.88c4.12-5.47,5.36-7.94,7.16-17.82,1.07-5.88.93-8.73,3.14-10,1.5-.84,1.29,4.16,2.25,5.29s8-8.3,9-7.11-2.9,8.67-6.44,13.69.5,4.4,1.39,4.78C324.55,179.72,317.86,187.7,305.79,189.88Z" style="fill: rgb(255, 255, 255); opacity: 0.9; transform-origin: 316.645px 175.008px;" class="animable"></path></g><path d="M242.37,227.92l80-46.17,7.82,4.52v1.33l-80,46.16a9,9,0,0,1-8.09.15,2.61,2.61,0,0,1-1.54-2.21s0-.93,0-1.32A3.07,3.07,0,0,1,242.37,227.92Z" style="fill: rgb(38, 86, 194); transform-origin: 285.375px 208.273px;" id="eljzkhtephih" class="animable"></path><g id="el08sokogrh20r"><path d="M242.37,227.92l80-46.17,7.82,4.52v1.33l-80,46.17a9,9,0,0,1-8.09.14,2.61,2.61,0,0,1-1.54-2.21s0-.92,0-1.32A3.07,3.07,0,0,1,242.37,227.92Z" style="opacity: 0.4; transform-origin: 285.375px 208.276px;" class="animable"></path></g><path d="M250.2,232.44a9,9,0,0,1-8.09.15c-2.16-1.25-2-3.34.26-4.67l80-46.17,7.82,4.52Z" style="fill: rgb(38, 86, 194); transform-origin: 285.384px 207.613px;" id="el26it2ttjfuu" class="animable"></path><g id="elyxubez43b7"><path d="M250.2,232.44a9,9,0,0,1-8.09.15c-2.16-1.25-2-3.34.26-4.67l80-46.17,7.82,4.52Z" style="opacity: 0.2; transform-origin: 285.384px 207.613px;" class="animable"></path></g><ellipse cx="262.66" cy="222.99" rx="0.98" ry="0.56" style="fill: rgb(69, 90, 100); transform-origin: 262.66px 222.99px;" id="el4272he04i63" class="animable"></ellipse><path d="M259.44,224.85a.42.42,0,0,1,0,.79,1.49,1.49,0,0,1-1.39,0,.42.42,0,0,1,0-.79A1.55,1.55,0,0,1,259.44,224.85Z" style="fill: rgb(69, 90, 100); transform-origin: 258.745px 225.249px;" id="elfc85wv8y36h" class="animable"></path><path d="M259.44,220.33a.42.42,0,0,1,0,.8,1.55,1.55,0,0,1-1.39,0,.42.42,0,0,1,0-.8A1.55,1.55,0,0,1,259.44,220.33Z" style="fill: rgb(69, 90, 100); transform-origin: 258.745px 220.73px;" id="el2r5wtt40tpt" class="animable"></path><ellipse cx="254.83" cy="222.99" rx="0.98" ry="0.56" style="fill: rgb(69, 90, 100); transform-origin: 254.83px 222.99px;" id="elukcrcm6v6zi" class="animable"></ellipse><path d="M289.73,197.16c1.51,0,6.19,1.7,6.19,7.75L294,206" style="fill: rgb(69, 90, 100); transform-origin: 292.825px 201.58px;" id="elk1xjx6uiet" class="animable"></path><path d="M288.06,202.6v-3.37c0-1.86,1.32-2.61,3-1.67a6.5,6.5,0,0,1,3,5.09V206Z" style="fill: rgb(38, 50, 56); transform-origin: 291.06px 201.577px;" id="elfnaq8dsk2rt" class="animable"></path><path d="M258,237l80-46.16,7.83,4.52v1.32l-80,46.17a8.93,8.93,0,0,1-8.08.15,2.62,2.62,0,0,1-1.54-2.21s0-.93,0-1.32A3.08,3.08,0,0,1,258,237Z" style="fill: rgb(38, 86, 194); transform-origin: 301.02px 217.366px;" id="elmf65ypin7ej" class="animable"></path><g id="elkdyiiv1rv9d"><path d="M258,237l80-46.17,7.83,4.52v1.32l-80,46.17a8.93,8.93,0,0,1-8.08.15,2.62,2.62,0,0,1-1.54-2.21s0-.93,0-1.32A3.06,3.06,0,0,1,258,237Z" style="opacity: 0.4; transform-origin: 301.02px 217.356px;" class="animable"></path></g><path d="M265.84,241.47a8.93,8.93,0,0,1-8.08.15c-2.16-1.24-2-3.33.26-4.66l80-46.17,7.83,4.52Z" style="fill: rgb(38, 86, 194); transform-origin: 301.039px 216.651px;" id="el2h2gtfh2bqf" class="animable"></path><g id="eld765555lwr4"><path d="M265.84,241.47a8.93,8.93,0,0,1-8.08.15c-2.16-1.24-2-3.33.26-4.66l80-46.17,7.83,4.52Z" style="opacity: 0.2; transform-origin: 301.039px 216.651px;" class="animable"></path></g><path d="M279,231.62a.42.42,0,0,1,0,.8,1.55,1.55,0,0,1-1.39,0,.42.42,0,0,1,0-.8A1.55,1.55,0,0,1,279,231.62Z" style="fill: rgb(69, 90, 100); transform-origin: 278.305px 232.02px;" id="elivtmh2o9en" class="animable"></path><ellipse cx="274.39" cy="234.28" rx="0.98" ry="0.56" style="fill: rgb(69, 90, 100); transform-origin: 274.39px 234.28px;" id="elecm1alyzlan" class="animable"></ellipse><ellipse cx="274.39" cy="229.76" rx="0.98" ry="0.56" style="fill: rgb(69, 90, 100); transform-origin: 274.39px 229.76px;" id="elxphde73nb0g" class="animable"></ellipse><ellipse cx="270.48" cy="232.02" rx="0.98" ry="0.56" style="fill: rgb(69, 90, 100); transform-origin: 270.48px 232.02px;" id="elcrnl989wq3" class="animable"></ellipse><path d="M305.37,206.19c1.52,0,6.2,1.7,6.2,7.76l-1.95,1.13" style="fill: rgb(69, 90, 100); transform-origin: 308.47px 210.635px;" id="elx6pb7e1cip" class="animable"></path><path d="M303.71,211.64v-3.38c0-1.86,1.32-2.61,3-1.67a6.54,6.54,0,0,1,3,5.1v3.39Z" style="fill: rgb(38, 50, 56); transform-origin: 306.71px 210.632px;" id="elbfkfzgd6yjf" class="animable"></path><path d="M316.82,143.22s-.13-.53-.31-1.16l-23.82-2-.25.88a180,180,0,0,0-5.13,17.27c-1,4-2.22,8.2-2.28,10.59,0,1.28,0,3.89.06,5.82.2,5,.34,8.13.42,14.83.05,4.55,0,8.38,0,10.28a5.64,5.64,0,0,1-2,4,34.61,34.61,0,0,1-6.61,5.07c-1.45.84-2.65,2-.68,3.17a8.37,8.37,0,0,0,6.95.22c2.26-1,3.39-3.16,5.69-3.77.9-.25,3.23-.23,3.91-1.84s-.46-2.95-.61-5.09c-.29-4.14,3-15.68,3.24-16.84,1.49-6.12.19-13.5.19-13.5l5.66-10c-.3,7.09-.21,14.72-.25,16.17,0,1.27.31,4.29.38,6.22.2,5,.41,7.45.66,14.75.15,4.55.23,8.41.21,10.31-.1,1.42-1,2.48-2.48,4a34.3,34.3,0,0,1-6.61,5.08c-1.45.84-2.64,2-.68,3.17a8.79,8.79,0,0,0,7.14.35c2.27-1.05,3.2-3.29,5.5-3.9.91-.25,3.23-.23,3.91-1.84s-.46-2.95-.61-5.09c-.29-4.14,3-15.68,3.24-16.84,1.5-6.12.2-13.5.2-13.5s1.56-5.31,3.29-12.34C318.27,155,319.61,152,316.82,143.22Z" style="fill: rgb(255, 168, 167); transform-origin: 296.764px 180.927px;" id="elv47bid94swf" class="animable"></path><path d="M302.48,149.81s-1.05,3.62-1.26,11.26l-5.35,9.53c.14-.25,4-10.27,4-10.39s.2-6.41.51-9.09c0,0-5.89-3.55-7.15-8.69Z" style="fill: rgb(242, 143, 143); transform-origin: 297.855px 156.515px;" id="el6eplyovjxfg" class="animable"></path><path d="M301.18,209.11c-1,0-1.67,2.62-3.39,4.56-3.45,3.9-6.92,4.8-7,6.05s2.32,2.68,4.79,2.65,3.86-.84,6.6-2.62a22.93,22.93,0,0,1,4-2.17c1.38-.66,2.45-.93,2.79-2a4.08,4.08,0,0,1-3.93-.84c-1.13-1.37-.28-3.64-.06-4.11S302.5,209.17,301.18,209.11Z" style="fill: rgb(69, 90, 100); transform-origin: 299.879px 215.74px;" id="el18lcdjymgla" class="animable"></path><path d="M285,200.08c-1-.05-1.68,2.61-3.39,4.55-3.45,3.91-6.93,4.8-7,6.06s2.33,2.67,4.8,2.65,3.86-.84,6.6-2.63a23.69,23.69,0,0,1,4-2.17c1.38-.66,2.45-.92,2.79-2a4.08,4.08,0,0,1-3.93-.83c-1.13-1.37-.29-3.64-.06-4.12S286.3,200.14,285,200.08Z" style="fill: rgb(69, 90, 100); transform-origin: 283.704px 206.71px;" id="eljck9x5whueq" class="animable"></path><path d="M254.8,152.32a.55.55,0,0,1-.36-.15.53.53,0,0,1-.13-.45l4.46-22.53a.48.48,0,0,1,.58-.39.5.5,0,0,1,.4.58l-4.32,21.83,32.66-5.34a.5.5,0,0,1,.16,1l-33.37,5.45Z" style="fill: rgb(55, 71, 79); transform-origin: 271.489px 140.554px;" id="el12hw6e28039" class="animable"></path><path d="M257,151.82a2.22,2.22,0,1,1-2.22-2.22A2.22,2.22,0,0,1,257,151.82Z" style="fill: rgb(69, 90, 100); transform-origin: 254.78px 151.82px;" id="el1l9c79k5sru" class="animable"></path><path d="M255.08,125h0a.6.6,0,0,0-.58.06,1.82,1.82,0,0,0-.82,1.42.58.58,0,0,0,.24.54h0l38.76,22.38,1.16-2Z" style="fill: rgb(69, 90, 100); transform-origin: 273.758px 137.176px;" id="elpeqsuo93uh" class="animable"></path><path d="M293.25,147.48a1.81,1.81,0,0,0-.83,1.42c0,.53.37.74.83.48a1.84,1.84,0,0,0,.82-1.43C294.07,147.43,293.7,147.21,293.25,147.48Z" style="fill: rgb(55, 71, 79); transform-origin: 293.245px 148.428px;" id="eljhrfmkw13n" class="animable"></path><path d="M304.75,109.2c-3-1-4.61-.33-7.56,2.48-2.63,2.51-7.36,6.63-9.06,8.16-2.86,2-6.43,3.3-10.88,5.09-4.29,1.72-6.18,2.77-8.9,2.49s-4.22-.4-5.58,1.64a8.65,8.65,0,0,0-1.6,4.45c0,1.42,4.48,3.75,5.56,3.75s2.12-1.58,2.12-1.58l-1.26-.73c-.8-.64.39-2.63,1.2-2l1.21.71a10.32,10.32,0,0,0,4.11-.89c1.93-.85,8.7-3,15.08-5.12a15.9,15.9,0,0,0,5.79-3.28,100.3,100.3,0,0,0,10-9.58C307.49,112.2,310.82,111.46,304.75,109.2Z" style="fill: rgb(255, 168, 167); transform-origin: 284.675px 123.011px;" id="elky65xdddmp" class="animable"></path><path d="M319.5,112.85c-.76-.4-7.78-2.61-7.78-2.61l-7-1c-2,1.31-6.2,3.58-7.91,8.83-.46,1.43-.08,1.49-.6,6.13-.19,1.66-.33,3.33-.55,6.45-.66,2.22-1.73,5.06-3,9.48l23.82,2c-1.17-3.77-1.65-4.08-3.25-8.08,0,0,1.85-4.33,3.77-8.55S320,114.86,319.5,112.85Z" style="fill: rgb(255, 168, 167); transform-origin: 306.141px 125.685px;" id="elt3cxims9l0b" class="animable"></path><path d="M306.16,128.83c-2.71,1.91-7.6,4.13-11.89,6.19-.47,1.44-1,3.09-1.58,5.07l-.25.88-.59,1.67c1.31-.5,3.2-1.18,5.33-2,3.38-1.1,6.32-2.06,9.54-3.16a10.92,10.92,0,0,0,4.87-2.84,17.92,17.92,0,0,0,2.6-2.85c.72-1.65,1.77-4,2.84-6.4a32.24,32.24,0,0,0,2.6-11C317.43,116,309.2,126.09,306.16,128.83Z" style="fill: rgb(242, 143, 143); transform-origin: 305.74px 128.515px;" id="elm1ppy7lemyf" class="animable"></path><path d="M302.48,149.81a22.13,22.13,0,0,1,5.46-4.59,12.62,12.62,0,0,1,8.88-2,23,23,0,0,0-.71-2.39c-5.67-.27-8.46,1.56-15.21.75-6-.71-7.52-3.77-7.52-3.77-.33,1.11-.67,2.15-.94,3.16C292.44,141,295.48,148,302.48,149.81Z" style="fill: rgb(69, 90, 100); transform-origin: 304.63px 143.81px;" id="elgyhrlxespht" class="animable"></path><path d="M293.38,137.81c-.14.48-.28.93-.42,1.39,0,.15-.1.31-.14.48-.14.43-.27.86-.38,1.29,0,0,.22.48.64,1.21l4.1-1.5A7.19,7.19,0,0,1,293.38,137.81Z" style="fill: rgb(55, 71, 79); transform-origin: 294.81px 139.995px;" id="elq6y104bbjl9" class="animable"></path><path d="M317.57,124.22l-2.52.49a9.33,9.33,0,0,0-2.92-9.41,9.26,9.26,0,0,0-8.69,8.38l-.51-.12s.93-7.92-3.4-10.22a8.93,8.93,0,0,0-4.63,5c-.43,1.32-.34,3.36,1.35,5.85,0,0,6.64,5.26,20.28,2.36Z" style="fill: rgb(69, 90, 100); transform-origin: 306.126px 120.381px;" id="ell7ndwwjyu5l" class="animable"></path><path d="M319.5,112.85c-1.29.21-11.41,12.53-14.69,15.49-2.86,2-7.34,3.53-11.79,5.69a17,17,0,0,1-9.76,2c-2.73-.27-4.22-.41-5.58,1.64a8.7,8.7,0,0,0-1.61,4.45c0,1.41,4.48,3.75,5.57,3.75s2.25-1.51,2.25-1.51l-1.35-.77c-.8-.64.42-2.62,1.23-2l1.26.73s1.05.89,4.85-.46c2-.71,9.91-3.55,16.25-5.79a12.77,12.77,0,0,0,5.4-3.28c6-5.84,6.77-6.47,9.18-8.91C323.26,121.3,325.56,115.11,319.5,112.85Z" style="fill: rgb(255, 168, 167); transform-origin: 299.708px 129.36px;" id="el6dikow2g02" class="animable"></path><g id="freepik--Head--inject-3" class="animable" style="transform-origin: 320.785px 99.7592px;"><path d="M343,91.62a3.73,3.73,0,0,0-2.72-1.36,3.33,3.33,0,0,0-2,.63,10,10,0,0,1-1.51.89,5.63,5.63,0,0,1-4.48-.13,25.74,25.74,0,0,1-4.58-2.57c-2.12-1.38-4.36-2.77-6.88-3a19.84,19.84,0,0,0-5.67.6,14.35,14.35,0,0,1-4,.28A24.6,24.6,0,0,1,307.32,85a7.78,7.78,0,0,0-2.84-1.3,3.33,3.33,0,0,0-3.32,5,5.8,5.8,0,0,0-1.86,0,2,2,0,0,0-1.44,1.06,1.7,1.7,0,0,0,.11,1.49,2.46,2.46,0,0,0,1.16,1,1.71,1.71,0,0,0,.28,3.4,2.7,2.7,0,0,0,.49,2.18c.47.62,1.1.72,1.71,1.12a12.14,12.14,0,0,1,1,.88l2.1,1.72,5.08,4.14,2.19,1.78c.09.08.86.58.85.7a1.73,1.73,0,0,1,.07-.31c0,.15,0,.25.09.1a7.91,7.91,0,0,1,5.29-3.45,15.44,15.44,0,0,1,4.94-.4c3.53.41,6.95,1.87,10.56,1.6a11.19,11.19,0,0,0,8.53-5.14,10,10,0,0,0,1.57-5.4A6.15,6.15,0,0,0,343,91.62Z" style="fill: rgb(38, 50, 56); transform-origin: 320.785px 95.9192px;" id="el1hfy22bukit" class="animable"></path><path d="M303.31,90.78c-1.5.56-3,2.74-3.28,9-.24,5.31,1.26,6.48,2.06,6.92a7.59,7.59,0,0,0,3.91.42l-.26,2.88a11.18,11.18,0,0,0-2,5.85s2.85-1,5.89-2.47c2.59-1.23,3-2.42,3-2.42l.81-7.21a2,2,0,0,0,2.54-.44c1.43-1.37,1.59-3.1.66-4.23s-2.3-.89-3.37,0l-.8-.47a16.2,16.2,0,0,1-5-1.9C304.1,94.66,303.4,92,303.31,90.78Z" style="fill: rgb(255, 168, 167); transform-origin: 308.613px 103.315px;" id="ela9dptksz4q" class="animable"></path><path d="M313.86,97.6l-1,2.78a1.39,1.39,0,0,1-.85-1.83A1.52,1.52,0,0,1,313.86,97.6Z" style="fill: rgb(38, 50, 56); transform-origin: 312.886px 98.9606px;" id="ela4jsoir53o9" class="animable"></path><path d="M302.81,98.11a.7.7,0,0,1-.71.72.73.73,0,0,1,0-1.46A.71.71,0,0,1,302.81,98.11Z" style="fill: rgb(38, 50, 56); transform-origin: 302.09px 98.1px;" id="el1l46ap6ckdt" class="animable"></path><path d="M308.16,99.1a.77.77,0,0,1-.77.78.79.79,0,1,1,.77-.78Z" style="fill: rgb(38, 50, 56); transform-origin: 307.37px 99.0903px;" id="elsnjtcpruo6" class="animable"></path><path d="M307.05,102.59l-2.75.71a1.39,1.39,0,0,0,1.68,1.12A1.56,1.56,0,0,0,307.05,102.59Z" style="fill: rgb(177, 102, 104); transform-origin: 305.693px 103.522px;" id="el60175xrxn4c" class="animable"></path><path d="M307,103.41a1.34,1.34,0,0,0-.45-.09,1.31,1.31,0,0,0-1.27,1.08,1.38,1.38,0,0,0,.7,0A1.48,1.48,0,0,0,307,103.41Z" style="fill: rgb(242, 143, 143); transform-origin: 306.14px 103.883px;" id="el956hp40ur9t" class="animable"></path><path d="M301,96.44l1.85-.63a.93.93,0,0,0-1.23-.62A1,1,0,0,0,301,96.44Z" style="fill: rgb(38, 50, 56); transform-origin: 301.901px 95.784px;" id="elcvbqal99aqa" class="animable"></path><polygon points="304.83 97.64 304.19 101.91 301.97 100.95 304.83 97.64" style="fill: rgb(242, 143, 143); transform-origin: 303.4px 99.775px;" id="ela1l2euw0q1b" class="animable"></polygon><path d="M306,107.13c1.66-.11,4.71-.65,5.89-2.22a3,3,0,0,1-1.17,1.86c-1.4,1.11-4.81,1.4-4.81,1.4Z" style="fill: rgb(242, 143, 143); transform-origin: 308.9px 106.54px;" id="elrcbi6jj379n" class="animable"></path></g><path d="M326.47,207.8l8.4-4.86s4.87-2.61,9-11.4,7.6-13.07,10.33-14.73,4,1.51,3.07,5.79,14-11.49,17.72-11c1.79.23,2.43,3,.55,6.72-2,3.9-6.63,8.82-10.53,12-7.6,6.3-7,7.48-5.46,7.72s6.65,1.43-3.45,6.53S334.19,210.17,326.47,207.8Z" style="fill: rgb(38, 86, 194); transform-origin: 351.573px 190.377px;" id="elseh8n9yi3m" class="animable"></path><g id="el1tm4ildeh0k"><path d="M326.47,207.8l8.4-4.86s4.87-2.61,9-11.4,7.6-13.07,10.33-14.73,4,1.51,3.07,5.79,14-11.49,17.72-11c1.79.23,2.43,3,.55,6.72-2,3.9-6.63,8.82-10.53,12-7.6,6.3-7,7.48-5.46,7.72s6.65,1.43-3.45,6.53S334.19,210.17,326.47,207.8Z" style="fill: rgb(255, 255, 255); opacity: 0.85; transform-origin: 351.573px 190.377px;" class="animable"></path></g><g id="eliimiham2ybr"><path d="M334.3,205.82c4.18-1.14,9.48-6.65,13.6-15.8,2.46-5.45,4.72-8.24,6.21-9.07s-.37,6.21.3,7.54,8.16-4.05,8.82-2.65-4.18,6.76-8.82,10.78-.4,4.22.2,5S344.32,208.15,334.3,205.82Z" style="fill: rgb(255, 255, 255); opacity: 0.9; transform-origin: 348.795px 193.627px;" class="animable"></path></g><path d="M161.38,290.91a.75.75,0,0,1-.38-.1,49.5,49.5,0,0,1,0-85.73l93.43-53.91a.74.74,0,0,1,1,.27.76.76,0,0,1-.27,1l-93.43,53.91a48,48,0,0,0,0,83.13.75.75,0,0,1-.37,1.4Z" style="fill: rgb(55, 71, 79); transform-origin: 195.887px 220.993px;" id="elaxzjurryoor" class="animable"></path></g></g><g id="freepik--character-1--inject-3" class="animable" style="transform-origin: 194.335px 342.469px;"><g id="elmlbdc061gs8"><path d="M121.19,288.82c1.18-.68,38.33,12.87,62.13,24.6a550.15,550.15,0,0,1,83.13,50.5c18.3,13.57,55.38,41.65,61.62,71.07,0,.13.39,1.89-.54,2.43s-4,.32-4.21.31c-62.11-2.52-109.07-16.36-135.58-27-40.51-16.29-62.54-28.81-88.91-46.19-25.62-16.89-47.28-35.46-46.09-36.14Z" style="opacity: 0.1; transform-origin: 190.422px 363.289px;" class="animable"></path></g><g id="freepik--Boat--inject-3" class="animable" style="transform-origin: 194.335px 335.363px;"><path d="M85.94,337.35a7.08,7.08,0,0,1,1.83.5c2.33,1.1,3,4.46,5.39,5.38,1.44.55,3.13,0,4.56.63,1.61.65,2.4,2.45,3.76,3.54a17.5,17.5,0,0,0,3.88,1.84c4.36,1.95,6.93,6.17,11.6,7.46,2,.53,4,1,5.55,2.3s2.28,3.07,3.89,4,3.53.84,5.22,1.51c2,.81,3.48,2.63,5.2,4,2.28,1.82,5.05,2.84,7.69,4s5.08,3.11,7.78,4.46c6.38,3.19,12.87,6.15,19.5,8.8q2.39.94,4.79,1.85,3.73,1.4,7.53,2.64c-4.29-1.4-8.8-5.28-12.68-7.63q-6.44-3.9-12.85-7.84-12.93-8-25.75-16.1-18.75-11.89-37.25-24.21-4.65-3.09-9.28-6.2c-2.92-2-6.2-3.26-9.16-5.12a45.11,45.11,0,0,1-5.83-4.13c-1.51-1.32-3.33-2.29-4.83-3.69-3.93-3.65-7.19-7.95-11-11.66a1.12,1.12,0,0,0-.8-.41c-.51.05-.68.71-.65,1.23a9.33,9.33,0,0,0,.59,2.7c.16.41.36.81.51,1.23,0,0,.25,1,.14.89a40.07,40.07,0,0,1-6.71-5.12l-6.89-7.18a4.18,4.18,0,0,0-1.12-.93,1.45,1.45,0,0,0-1.4,0c-.66.46-.57,1.47-.31,2.23a15.22,15.22,0,0,0,4.41,6.11c1.86,1.72,3.9,3.26,5.59,5.15a23,23,0,0,0,3.48,3.62c1.31.92,2.91,1.37,4.22,2.3,1.57,1.1,2.42,2.82,3.74,4.14s2.15,2.92,4.1,3.22a7.21,7.21,0,0,1,1.86.28c.88.37,1.33,1.32,1.86,2.12s1.46,1.56,2.37,1.23c.65-.24,1.11.53,1.55,1.07,1,1.15,1.61,2.78,3,3.44a14.1,14.1,0,0,0,3.15.78,5.42,5.42,0,0,1,2.93,1.3c1,1,1.26,2.53,2.35,3.37A5.42,5.42,0,0,0,85.94,337.35Z" style="fill: rgb(255, 255, 255); transform-origin: 111.377px 343.085px;" id="elmri15b7rcn" class="animable"></path><path d="M53.64,300.64a2.83,2.83,0,0,0,1.57,1.23,3,3,0,0,0,.43.1.74.74,0,0,0,.76-.24.73.73,0,0,0-.06-.67,2.65,2.65,0,0,0-1.91-1.45C53.66,299.48,53.18,299.86,53.64,300.64Z" style="fill: rgb(255, 255, 255); transform-origin: 54.9574px 300.79px;" id="elcxgkg3ovami" class="animable"></path><g id="freepik--boat--inject-3" class="animable" style="transform-origin: 205.123px 335.363px;"><path d="M60.24,295.1v0h0s0-.07,0-.08l82.8-47.81c1.18-.68,38.34,12.87,62.13,24.6a549.6,549.6,0,0,1,83.13,50.51c18.3,13.56,55.39,41.64,61.62,71.06,0,.13.39,1.88-.52,2.42h0l-45.72,26.4a11.65,11.65,0,0,1-5.32,1.37c-29.49-1.18-96.2-19.65-145.54-48.14C120.9,357,85.58,332.66,76.3,326.19A12.73,12.73,0,0,1,72.74,322c-2.63-5.57-9.85-21.27-12.5-26.86Z" style="fill: rgb(224, 224, 224); transform-origin: 205.122px 335.378px;" id="el8ttw4vizeju" class="animable"></path><path d="M321,412.18l-17.33,10a11.65,11.65,0,0,1-5.32,1.37c-29.49-1.18-96.2-19.65-145.54-48.14C120.9,357,85.58,332.66,76.3,326.19A12.73,12.73,0,0,1,72.74,322c-.8-1.7-2-4.35-3.43-7.37C168.34,386.1,282.08,418.94,321,412.18Z" style="fill: rgb(38, 86, 194); transform-origin: 195.155px 369.09px;" id="el2gls09shz0v" class="animable"></path><g id="elmym16wdsb4"><path d="M321,412.18l-17.33,10a11.65,11.65,0,0,1-5.32,1.37c-29.49-1.18-96.2-19.65-145.54-48.14C120.9,357,85.58,332.66,76.3,326.19A12.73,12.73,0,0,1,72.74,322c-.8-1.7-2-4.35-3.43-7.37C168.34,386.1,282.08,418.94,321,412.18Z" style="opacity: 0.2; transform-origin: 195.155px 369.09px;" class="animable"></path></g><path d="M180.51,363.2C144.69,347.9,105.65,328,64.39,304l.73,1.59c40.84,23.69,79.5,43.38,115,58.54,62,26.5,113.26,39.87,152.58,39.87.86,0,1.69,0,2.54,0l1.78-1C297.3,404,244.74,390.63,180.51,363.2Z" style="fill: rgb(69, 90, 100); transform-origin: 200.705px 354px;" id="eljhodwlvwwzm" class="animable"></path><g id="elozcqxhzovhs"><path d="M214.14,403.36C128.88,361.8,108.57,330,116.2,306.86l-2.54-25.49-14.25-9L60.25,295s0,.05,0,.08h0v0h0c2.65,5.59,9.87,21.29,12.5,26.86a12.73,12.73,0,0,0,3.56,4.22c9.28,6.47,44.6,30.82,76.5,49.23C171.72,386.35,193.19,395.79,214.14,403.36Z" style="opacity: 0.1; transform-origin: 137.195px 337.865px;" class="animable"></path></g><path d="M143.05,247.18c1.18-.68,38.34,12.87,62.13,24.6a549.6,549.6,0,0,1,83.13,50.51c18.3,13.56,55.39,41.64,61.62,71.06,0,.13.39,1.89-.53,2.43s-4,.33-4.21.31c-51-3.6-107.24-19.37-134.06-29.25a858.37,858.37,0,0,1-97.49-42.21c-20-10.09-54.58-29-53.39-29.64Z" style="fill: rgb(245, 245, 245); transform-origin: 205.116px 321.651px;" id="el3lz60n65x44" class="animable"></path><path d="M143.05,247.18c1.18-.68,38.34,12.87,62.13,24.6a549.6,549.6,0,0,1,83.13,50.51c18.3,13.56,55.39,41.64,61.62,71.06a3.09,3.09,0,0,1-.24,2.16L344.17,391l-81.24-46.91L144,252.43Z" style="fill: rgb(240, 240, 240); transform-origin: 246.538px 321.333px;" id="elcnhne45a5ha" class="animable"></path><path d="M344.17,391c-8.15-27.13-43.42-53.27-58.83-64.7a544.84,544.84,0,0,0-82.37-50c-21.2-10.45-51.71-21.79-59-23.84L69.71,295.3c10.28,6,31.26,17.33,46.19,24.87a850.38,850.38,0,0,0,97,42C235.43,370.46,291.67,387.08,344.17,391Z" style="fill: rgb(224, 224, 224); transform-origin: 206.94px 321.73px;" id="el6mvggem76do" class="animable"></path><g id="eliek3o5vj3zb"><path d="M203,276.27a553.63,553.63,0,0,1,64,37.08l11,30.54c-48.55-35.73-134-68-134-68V252.43h0C151.26,254.48,181.77,265.82,203,276.27Z" style="opacity: 0.1; transform-origin: 211px 298.16px;" class="animable"></path></g><path d="M156.87,339.67h0c65.68,16.84,106.06,4.43,106.06,4.43L344.17,391c-52.5-3.92-108.74-20.54-131.31-28.85C192.07,354.5,174.34,347.41,156.87,339.67Z" style="fill: rgb(245, 245, 245); transform-origin: 250.52px 365.335px;" id="elw88d799miig" class="animable"></path><path d="M236,294a530.49,530.49,0,0,1,49.32,32.32c15.41,11.43,50.68,37.57,58.83,64.7l-81.24-46.9S260.66,320.54,236,294Z" style="fill: rgb(240, 240, 240); transform-origin: 290.075px 342.51px;" id="elvx2eq795ut" class="animable"></path><path d="M144,252.43l5.73,3.3c4,2.31,5.09,5.4,6.45,11.19l1.47,5.89-63,36.25c-10.74-5.71-16.47-8.89-24.91-13.76Z" style="fill: rgb(235, 235, 235); transform-origin: 113.695px 280.745px;" id="el4pqlcayrss6" class="animable"></path><path d="M82.06,302.24l72.13-41.65a10.68,10.68,0,0,0-2-3,12.81,12.81,0,0,0-2.45-1.85h0l-5.73-3.3L69.71,295.3C73.53,297.51,77.68,299.83,82.06,302.24Z" style="fill: rgb(250, 250, 250); transform-origin: 111.95px 277.34px;" id="el2qfy9cgncv5" class="animable"></path><path d="M157.62,272.81l10.75,3.44a7.09,7.09,0,0,1,4.16,6.47v4.81L116,320.19c-2.26-1.13-5.32-2.71-8.6-4.41q-6.48-3.37-12.73-6.72Z" style="fill: rgb(235, 235, 235); transform-origin: 133.6px 296.5px;" id="elgb60j2dl9gh" class="animable"></path><path d="M107.35,315.78q-6.48-3.37-12.73-6.72l27.21-15.71,35.79-20.54,10.75,3.44a7.07,7.07,0,0,1,3,2.57Z" style="fill: rgb(250, 250, 250); transform-origin: 132.995px 294.295px;" id="elu0oceax96ve" class="animable"></path></g><g id="freepik--driver-seat--inject-3" class="animable" style="transform-origin: 156.705px 314.435px;"><path d="M182.15,335.91l-8.31.16h-.14l-11.14-5-1.2-.54a5.57,5.57,0,0,0-1.58-.43,7.55,7.55,0,0,0-4.58.72l-7.92,4.54,1.85.85,1.32.6,2.22,1,.39.17,2.49,1.12.51.23.82.36,2.18.55.73.18c1.27.32,2.53.62,3.78.91h0l.89.21h0l3.8.84h0l3.1.66c2.17.44,4.31.86,6.41,1.23l3.16-1.82a2,2,0,0,0,1.19-1.59h0v-4.93Z" style="fill: rgb(55, 71, 79); transform-origin: 164.715px 337.139px;" id="elsnvneunizx" class="animable"></path><path d="M180.8,334.34l-19.44-8.77a4.82,4.82,0,0,0-.81-.28,8,8,0,0,0-4,0,5.59,5.59,0,0,0-1.37.54l-11.52,6.61-1.16.66,1.08.51,3.1,1.44h0l.57.26,1.85.85,1.32.6,2.22,1,.39.17,2.49,1.12.51.23.82.36,2.18.55.73.18c1.27.32,2.53.62,3.78.91h0l.89.21h0l3.8.84h0l3.1.66,6.76-3.9,2.81-1.63a2,2,0,0,0,1.19-1.58C182.15,335.32,181.7,334.74,180.8,334.34Z" style="fill: rgb(69, 90, 100); transform-origin: 162.298px 334.013px;" id="el0awqyw7cotpf" class="animable"></path><path d="M156.54,301.8h0a.88.88,0,0,0-.27-.1.92.92,0,0,0-.29,0,1.65,1.65,0,0,0-.84.25l-15.6,8.78a4,4,0,0,0-1.31,1.35,3.9,3.9,0,0,0-.58,1.76l-.74,16.68c-1.87-.89-3.76-1.79-5.65-2.71l.76-17.21a4.21,4.21,0,0,1,1.9-3.12l1.4-.79,3.41-1.92,8.6-4.84,2.17-1.23a1.42,1.42,0,0,1,1.44-.09h0l1.86,1.07Z" style="fill: rgb(38, 50, 56); transform-origin: 143.9px 314.488px;" id="elc9pt6zpvg86" class="animable"></path><path d="M160.85,327.29a3.35,3.35,0,0,1-1.07,2.79,2.53,2.53,0,0,1-.42.31l-10.23,5.8-1.85-.85-.57-.26h0l-3.1-1.44-1.08-.51-.33-.15-5.28-2.48h0l.74-16.68a3.9,3.9,0,0,1,.58-1.76,4,4,0,0,1,1.31-1.35l15.6-8.78a1.65,1.65,0,0,1,.84-.25.92.92,0,0,1,.29,0,.88.88,0,0,1,.27.1,1.43,1.43,0,0,1,.7,1.12l3.31,22.36Z" style="fill: rgb(55, 71, 79); transform-origin: 148.893px 318.929px;" id="el30iovismztt" class="animable"></path><path d="M132.61,308.8l5.62,3.25a4.07,4.07,0,0,1,1.31-1.36l15.6-8.77a1.4,1.4,0,0,1,1.4-.11h0l-5.6-3.23h0a1.4,1.4,0,0,0-1.44.09l-15.59,8.77A4,4,0,0,0,132.61,308.8Z" style="fill: rgb(69, 90, 100); transform-origin: 144.575px 305.236px;" id="eljjkssoa4oz" class="animable"></path><path d="M134.51,305.33v-6.86c0-4.94,3.15-10.76,7-13,1.79-1,3.41-1.12,4.65-.45h0l4.28,2.5-1.9,3.64v6.05a4,4,0,0,1-1.8,3.12l-4.28,2.47L139.28,309,135,306.49h0A1.27,1.27,0,0,1,134.51,305.33Z" style="fill: rgb(38, 50, 56); transform-origin: 142.47px 296.8px;" id="elxj3zcugrei" class="animable"></path><path d="M141.54,295.24,136,292.05a14.76,14.76,0,0,1,5.51-6.58c1.79-1,3.41-1.12,4.65-.45h0l4.28,2.5-1.9,3.64v1.19Z" style="fill: rgb(69, 90, 100); transform-origin: 143.22px 289.92px;" id="el7k31krzxbc" class="animable"></path><path d="M138.73,307.79v-6.86c0-4.94,3.15-10.76,7-13s7-.06,7,4.88v6.86a4,4,0,0,1-1.8,3.12l-10.47,6.05C139.54,309.4,138.73,308.93,138.73,307.79Z" style="fill: rgb(55, 71, 79); transform-origin: 145.73px 298.063px;" id="elcoqcbhs1u9c" class="animable"></path><path d="M156.57,325.32c0,.47,0,.95,0,1.43a4.79,4.79,0,0,1-1.69,3.35,52.5,52.5,0,0,1-8.17,5h0l-3.1-1.44-1.08-.51-.33-.15a176,176,0,0,1,0-18.29,4.48,4.48,0,0,1,.43-1.54l.15-.29a0,0,0,0,0,0,0,4.59,4.59,0,0,1,1.22-1.49,41.41,41.41,0,0,1,7.73-4.46,1.78,1.78,0,0,1,2.49,1.2A67.25,67.25,0,0,1,156.57,325.32Z" style="fill: rgb(38, 86, 194); transform-origin: 149.266px 320.93px;" id="elta73as3311" class="animable"></path><g id="el5q3oe4p0b22"><path d="M143.78,326c0,2.3,0,4.62-.1,6.46,0,.42-.05.81-.08,1.17l-1.08-.51-.33-.15a176,176,0,0,1,0-18.29,4.48,4.48,0,0,1,.43-1.54l.15-.29a0,0,0,0,0,0,0C143.52,312,143.78,320.67,143.78,326Z" style="opacity: 0.25; transform-origin: 142.866px 323.211px;" class="animable"></path></g><g id="elm9ugrfd6nyb"><g style="opacity: 0.15; transform-origin: 150.285px 321.34px;" class="animable"><path d="M155.34,326.29l-.43.27c-.27.19-.66.43-1.11.73-.92.6-2.15,1.37-3.41,2.09s-2.54,1.39-3.52,1.88c-.49.24-.89.46-1.19.6l-.45.23.5-.11c.31-.08.76-.18,1.29-.35s1.14-.4,1.77-.67c.32-.15.65-.29,1-.46s.65-.34,1-.52c.63-.38,1.26-.78,1.82-1.19A17,17,0,0,0,154,327.6c.41-.36.73-.7,1-.93Z" id="eluwb6kxm9h9" class="animable" style="transform-origin: 150.285px 329.19px;"></path><path d="M155.34,322.81s-.16.09-.43.27-.66.42-1.11.72c-.92.6-2.15,1.38-3.41,2.09s-2.54,1.39-3.52,1.88c-.49.25-.89.47-1.19.6l-.45.23.5-.1c.31-.08.76-.18,1.29-.36a15.51,15.51,0,0,0,1.77-.67c.32-.15.65-.28,1-.46s.65-.34,1-.52c.63-.37,1.26-.77,1.82-1.18s1.07-.82,1.48-1.19.73-.71,1-.94Z" id="elezl35xjccze" class="animable" style="transform-origin: 150.285px 325.705px;"></path><path d="M154.62,319.93s-.15.08-.4.24l-1,.66c-.85.55-2,1.25-3.16,1.88s-2.37,1.21-3.28,1.65l-1.1.54-.42.22.46-.09c.29-.07.71-.15,1.2-.3s1.06-.33,1.65-.56c.3-.13.61-.24.91-.4s.61-.29.91-.45.6-.34.89-.52.55-.37.82-.55a15.72,15.72,0,0,0,1.36-1.1c.38-.34.67-.66.88-.87Z" id="elj06tca46khm" class="animable" style="transform-origin: 149.94px 322.525px;"></path><path d="M154.33,316.68l-.39.23c-.24.17-.59.37-1,.64-.82.52-1.91,1.2-3.05,1.79s-2.31,1.14-3.19,1.56l-1.07.53c-.25.12-.4.21-.4.21l.45-.09c.28-.06.68-.14,1.16-.28s1-.3,1.6-.52c.29-.12.59-.22.88-.37s.6-.28.89-.43.58-.32.86-.49.54-.36.8-.53a13,13,0,0,0,1.31-1.07c.37-.33.65-.64.85-.84Z" id="elvq4cohc57lq" class="animable" style="transform-origin: 149.78px 319.16px;"></path><path d="M153.83,313.58l-.37.22-.94.59a32.91,32.91,0,0,1-2.88,1.66c-1.07.54-2.19,1-3,1.41s-1.38.69-1.38.69a13,13,0,0,0,1.52-.32,15.75,15.75,0,0,0,3.2-1.16c.28-.15.56-.3.82-.46s.52-.33.76-.49a12.83,12.83,0,0,0,1.23-1A10.54,10.54,0,0,0,153.83,313.58Z" id="elh0agfc49ont" class="animable" style="transform-origin: 149.545px 315.865px;"></path><path d="M152.68,310.59s-.48.27-1.15.7-1.58,1-2.51,1.44-1.88.94-2.6,1.3-1.19.64-1.19.64a9.73,9.73,0,0,0,1.33-.27,13.54,13.54,0,0,0,2.78-1l.71-.41c.23-.14.44-.29.65-.44a9.51,9.51,0,0,0,1.07-.9A8.65,8.65,0,0,0,152.68,310.59Z" id="elfjj2t5wv1ow" class="animable" style="transform-origin: 148.955px 312.63px;"></path></g></g><path d="M173.87,338.66l-1.36,1q-2,1.41-4.22,2.71h0l-3.8-.84h0l-.89-.21h0c-1.25-.29-2.51-.59-3.78-.91l-.73-.18-2.18-.55-.82-.36-.51-.23L153.06,338l-.39-.17-2.22-1a52.61,52.61,0,0,1,9.05-5.15,8.77,8.77,0,0,1,3.06-.59,5.45,5.45,0,0,1,.94.07,25,25,0,0,1,10.34,4.95l0,0A1.53,1.53,0,0,1,173.87,338.66Z" style="fill: rgb(38, 86, 194); transform-origin: 162.495px 336.73px;" id="eln1q70nxxn89" class="animable"></path><g id="eldojip3v6wvt"><g style="opacity: 0.2; transform-origin: 162.355px 337.015px;" class="animable"><path d="M172,337.39l-.54.29-1.43.77c-.79.41-1.75.92-2.76,1.48h0l-1.53.86c-.43.24-.85.48-1.26.73h0l-.89-.21c.57-.39,1.19-.77,1.82-1.13l.38-.21h0a32,32,0,0,1,4.09-1.88c.63-.25,1.17-.41,1.54-.53S172,337.39,172,337.39Z" id="el10tc61tjsnx" class="animable" style="transform-origin: 167.795px 339.455px;"></path><path d="M168.68,335.47l-.54.3-1.43.76c-1.18.63-2.76,1.46-4.3,2.34l-1.82,1.05-.8.48-.73-.18c.16-.12.32-.24.49-.35.77-.55,1.63-1.09,2.52-1.6a32.16,32.16,0,0,1,4.48-2.1c.63-.24,1.17-.41,1.54-.53Z" id="elr9zmj76dsfl" class="animable" style="transform-origin: 163.87px 337.935px;"></path><path d="M165.82,333.84s-.19.12-.54.3l-1.43.77c-1.19.62-2.76,1.46-4.3,2.34-1.24.7-2.47,1.43-3.49,2.06l-.51-.23a29,29,0,0,1,3.66-2.44,33.35,33.35,0,0,1,4.48-2.1c.63-.24,1.17-.4,1.54-.52Z" id="elafyeustxs68" class="animable" style="transform-origin: 160.685px 336.575px;"></path><path d="M162.7,332.51s-.17.11-.49.28l-1.31.71c-1.08.58-2.52,1.35-3.94,2.16s-2.81,1.64-3.86,2.28l0,0-.39-.17.2-.17a26.37,26.37,0,0,1,3.75-2.57,28.53,28.53,0,0,1,4.12-1.91c.58-.22,1.08-.37,1.42-.48Z" id="elotzzfia9x8" class="animable" style="transform-origin: 157.705px 335.225px;"></path></g></g></g><g id="freepik--codriver-seat--inject-3" class="animable" style="transform-origin: 201.472px 294.629px;"><path d="M180.64,312.86l6.69-.13,10.17-5.83a7.67,7.67,0,0,1,6.17-.3L216,312.17l8.46-.17v4.94h0c0,.55-.39,1.12-1.19,1.59l-22.15,12.78a5.4,5.4,0,0,1-5.69-.45L181.67,319.7a2.47,2.47,0,0,1-1-1.9h0Z" style="fill: rgb(55, 71, 79); transform-origin: 202.55px 319.004px;" id="elmafdlx7pt4r" class="animable"></path><path d="M223.26,313.59l-22.15,12.79a5.42,5.42,0,0,1-5.69-.46l-13.75-11.16a2.22,2.22,0,0,1,.31-3.91L197.5,302a7.67,7.67,0,0,1,6.17-.3l19.43,8.77C224.85,311.22,224.92,312.63,223.26,313.59Z" style="fill: rgb(69, 90, 100); transform-origin: 202.551px 314.085px;" id="elsxhl5g0xu4b" class="animable"></path><path d="M180.63,312.87v4.92l0,0a2.43,2.43,0,0,0,1,1.89l13.75,11.16a5.06,5.06,0,0,0,2.69,1V327a5.05,5.05,0,0,1-2.69-1l-13.75-11.17A2.47,2.47,0,0,1,180.63,312.87Z" style="fill: rgb(38, 50, 56); transform-origin: 189.35px 322.355px;" id="elh67k34z70mc" class="animable"></path><path d="M178.5,311.4a1.22,1.22,0,0,0,.47,1.17l5.64,3.26h0a1.17,1.17,0,0,1-.48-1.17l1.22-27.56a4.19,4.19,0,0,1,1.9-3.11l13.29-7.68a1.45,1.45,0,0,1,1.4-.11h0l-5.6-3.23h0a1.45,1.45,0,0,0-1.44.09l-13.28,7.68a4.18,4.18,0,0,0-1.89,3.11Z" style="fill: rgb(38, 50, 56); transform-origin: 190.212px 294.325px;" id="elqlb2xkejdks" class="animable"></path><path d="M200.53,276.3,187.25,284a4.22,4.22,0,0,0-1.9,3.12l-1.22,27.57c0,1.14.71,1.61,1.71,1l18.92-10.92a3.29,3.29,0,0,0,1.49-3.1l-3.61-24.35A1.32,1.32,0,0,0,200.53,276.3Z" style="fill: rgb(55, 71, 79); transform-origin: 195.199px 295.998px;" id="elxcbszi9fd5" class="animable"></path><path d="M180.31,282.08l5.63,3.25a3.86,3.86,0,0,1,1.31-1.35l13.29-7.68a1.45,1.45,0,0,1,1.4-.11h0l-5.6-3.23h0a1.45,1.45,0,0,0-1.44.09l-13.28,7.68A4,4,0,0,0,180.31,282.08Z" style="fill: rgb(69, 90, 100); transform-origin: 191.125px 279.07px;" id="elvuwfzwvxs3k" class="animable"></path><path d="M182.63,278.07v-6.86c0-4.94,3.15-10.76,7-13a4.69,4.69,0,0,1,4.65-.45h0l4.29,2.5-1.9,3.64v6.05a4,4,0,0,1-1.8,3.12l-4.29,2.47-3.22,6.17-4.24-2.47h0A1.27,1.27,0,0,1,182.63,278.07Z" style="fill: rgb(38, 50, 56); transform-origin: 190.595px 269.527px;" id="eldfj5nl67sg" class="animable"></path><path d="M189.67,268l-5.52-3.19a14.71,14.71,0,0,1,5.52-6.58,4.69,4.69,0,0,1,4.65-.45h0l4.29,2.5-1.9,3.64v1.19Z" style="fill: rgb(69, 90, 100); transform-origin: 191.38px 262.682px;" id="elacujzt7ngya" class="animable"></path><path d="M186.85,280.53v-6.86c0-4.94,3.15-10.76,7-13s7-.06,7,4.88v6.86a4,4,0,0,1-1.8,3.12l-10.48,6C187.66,282.14,186.85,281.67,186.85,280.53Z" style="fill: rgb(55, 71, 79); transform-origin: 193.85px 270.794px;" id="elos50zucs1yk" class="animable"></path><path d="M200.13,282.14a67.77,67.77,0,0,1,2.33,18.66,4.77,4.77,0,0,1-1.69,3.35,53.2,53.2,0,0,1-10.59,6.1,1.36,1.36,0,0,1-2-1.28,190.19,190.19,0,0,1-.06-20.23,5.09,5.09,0,0,1,1.81-3.34,41.41,41.41,0,0,1,7.73-4.46A1.78,1.78,0,0,1,200.13,282.14Z" style="fill: rgb(38, 86, 194); transform-origin: 195.174px 295.595px;" id="elr79t9wfx0ib" class="animable"></path><g id="elsciw2ocv9wm"><path d="M188.31,309.6a1.72,1.72,0,0,1-.15-.63,190.19,190.19,0,0,1-.06-20.23,4.48,4.48,0,0,1,.58-1.83c.73-1.05,1,7.77,1,13.15s-.07,10.7-1,10.08l-.1-.08A2.62,2.62,0,0,1,188.31,309.6Z" style="opacity: 0.25; transform-origin: 188.77px 298.507px;" class="animable"></path></g><g id="elj8s55pwdz3"><g style="opacity: 0.15; transform-origin: 196.16px 295.395px;" class="animable"><path d="M201.23,300.34l-.43.28c-.26.18-.65.42-1.11.72-.92.6-2.15,1.37-3.41,2.09s-2.54,1.39-3.52,1.88l-1.18.6-.46.23.5-.1c.31-.08.77-.19,1.29-.36a18.74,18.74,0,0,0,1.78-.67c.31-.15.64-.28,1-.46s.65-.34,1-.52c.64-.38,1.26-.77,1.82-1.18s1.07-.82,1.48-1.19.73-.71,1-.94S201.23,300.34,201.23,300.34Z" id="elk7fu2x9zj9" class="animable" style="transform-origin: 196.175px 303.24px;"></path><path d="M201.23,296.86l-.43.27c-.26.19-.65.43-1.11.73-.92.6-2.15,1.37-3.41,2.09s-2.54,1.39-3.52,1.88l-1.18.6-.46.23s.19,0,.5-.11.77-.18,1.29-.35,1.14-.4,1.78-.67c.31-.15.64-.29,1-.46l1-.52c.64-.38,1.26-.78,1.82-1.19a17,17,0,0,0,1.48-1.19c.41-.36.73-.71,1-.93Z" id="elzf6prupc0n" class="animable" style="transform-origin: 196.175px 299.76px;"></path><path d="M200.51,294l-.4.25c-.24.17-.61.38-1,.66-.85.54-2,1.24-3.15,1.87s-2.38,1.21-3.29,1.65l-1.1.55-.42.21a4.35,4.35,0,0,0,.46-.09c.29-.06.71-.15,1.2-.3a16.14,16.14,0,0,0,1.65-.56c.3-.13.61-.24.91-.39s.61-.3.92-.46l.88-.52c.29-.17.55-.37.82-.55a12.92,12.92,0,0,0,1.36-1.1c.38-.34.67-.66.88-.87Z" id="elystteamb3va" class="animable" style="transform-origin: 195.83px 296.595px;"></path><path d="M200.22,290.73s-.15.08-.39.24-.59.37-1,.63c-.82.53-1.91,1.2-3.05,1.8s-2.31,1.13-3.19,1.55l-1.07.53-.4.21s.17,0,.45-.08.68-.15,1.16-.28,1-.31,1.6-.53c.29-.11.59-.22.88-.36l.89-.43c.29-.16.58-.32.86-.5s.54-.35.8-.53a14.59,14.59,0,0,0,1.31-1.06c.37-.34.65-.64.85-.85Z" id="el8p6y8pa0r7k" class="animable" style="transform-origin: 195.67px 293.21px;"></path><path d="M199.72,287.63l-.36.22-1,.6a30.65,30.65,0,0,1-2.88,1.65c-1.07.54-2.19,1-3,1.41s-1.39.7-1.39.7.62-.09,1.52-.32a16.78,16.78,0,0,0,3.21-1.17c.27-.15.55-.29.81-.45s.52-.34.76-.5a12.78,12.78,0,0,0,1.24-1A11,11,0,0,0,199.72,287.63Z" id="elh4h3nqchxhv" class="animable" style="transform-origin: 195.405px 289.92px;"></path><path d="M198.57,284.65s-.48.27-1.15.69-1.58,1-2.51,1.45-1.88.93-2.6,1.29-1.19.64-1.19.64a10.54,10.54,0,0,0,1.33-.26,13.62,13.62,0,0,0,2.78-1.06l.71-.41a6.16,6.16,0,0,0,.65-.44,8.56,8.56,0,0,0,1.07-.9A8.19,8.19,0,0,0,198.57,284.65Z" id="el902nie65gfl" class="animable" style="transform-origin: 194.845px 286.685px;"></path></g></g><path d="M205.81,307.21a25,25,0,0,1,10.37,5,1.53,1.53,0,0,1,0,2.56,68.76,68.76,0,0,1-13.34,7.65,4.91,4.91,0,0,1-3.78-.1,33.22,33.22,0,0,1-8-5.69,1.77,1.77,0,0,1,.25-2.74,56.51,56.51,0,0,1,10.47-6.14A8.41,8.41,0,0,1,205.81,307.21Z" style="fill: rgb(38, 86, 194); transform-origin: 203.698px 314.954px;" id="elt137mokssy" class="animable"></path><g id="eler9r5jl773i"><g style="opacity: 0.2; transform-origin: 203.975px 314.59px;" class="animable"><path d="M214.31,313.48l-.59.18c-.37.12-.91.28-1.54.52a32.16,32.16,0,0,0-4.48,2.1,29.76,29.76,0,0,0-4.09,2.78,20.3,20.3,0,0,0-1.67,1.51l1.9-1.19c1.14-.7,2.66-1.62,4.2-2.5s3.12-1.71,4.3-2.34l1.43-.76C214.12,313.6,214.31,313.48,214.31,313.48Z" id="elamtacrjo2jh" class="animable" style="transform-origin: 208.125px 317.025px;"></path><path d="M211,311.57s-.22.05-.6.17-.91.28-1.54.53a33.76,33.76,0,0,0-4.48,2.09,30.39,30.39,0,0,0-4.09,2.78c-1,.86-1.67,1.51-1.67,1.51l1.9-1.18c1.14-.71,2.66-1.63,4.2-2.5s3.12-1.72,4.3-2.34l1.43-.77Z" id="elaabcl01wlfp" class="animable" style="transform-origin: 204.81px 315.11px;"></path><path d="M208.13,309.94l-.6.17c-.37.12-.91.29-1.54.53a32.7,32.7,0,0,0-4.48,2.1,29.76,29.76,0,0,0-4.09,2.78c-1,.86-1.67,1.5-1.67,1.5l1.9-1.18c1.14-.71,2.66-1.63,4.2-2.5s3.12-1.71,4.3-2.34l1.43-.76Z" id="elte6bbwa736" class="animable" style="transform-origin: 201.94px 313.48px;"></path><path d="M205,308.61l-.55.15c-.34.11-.84.26-1.42.48a29,29,0,0,0-4.12,1.91,28.53,28.53,0,0,0-3.75,2.56,20.59,20.59,0,0,0-1.52,1.4l.49-.3,1.26-.77c1-.65,2.45-1.49,3.87-2.29s2.85-1.57,3.93-2.15l1.31-.71Z" id="elvty4k692jyg" class="animable" style="transform-origin: 199.32px 311.86px;"></path></g></g></g><g id="freepik--character--inject-3" class="animable" style="transform-origin: 173.992px 311.835px;"><g id="freepik--arm-with-steering-wheel--inject-3" class="animable" style="transform-origin: 183.591px 323.754px;"><path d="M162.46,303.43c4.73-.56,6.11,1.23,8.84,4,2.89,3,8.63,9,8.63,9L191.74,320l4.31,1.41s0,6.68-1.94,5.38-10.63-2.11-13.36-2.42c-4.17-.48-4.3-.9-6.37-2.34-4.38-3-9-6.86-9-6.86Z" style="fill: rgb(177, 102, 104); transform-origin: 179.255px 315.143px;" id="eleidl1fk5was" class="animable"></path><path d="M198.05,321.66a4,4,0,0,1,2.51-.37,2.15,2.15,0,0,1,1.45,1.32,2.69,2.69,0,0,0,.22.62,1.22,1.22,0,0,0,.31.33,7.68,7.68,0,0,1,1.67,1.37,3.33,3.33,0,0,1,.47,1.79,6.28,6.28,0,0,1-.44,3.13,2.91,2.91,0,0,1-2.46,1.78,3.14,3.14,0,0,1-1.17-.24,7.88,7.88,0,0,1-1.73-1.06,8.1,8.1,0,0,0-1.75-.85,7.38,7.38,0,0,1-3.14-2.92c-.35-1.13.74-4.3,1.59-4.61C196,321.79,197.68,321.82,198.05,321.66Z" style="fill: rgb(177, 102, 104); transform-origin: 199.322px 326.429px;" id="ely3s066bz3bb" class="animable"></path><path d="M186.24,343.44c-2-1.14-3.06-3.42-3.06-6.41a18.91,18.91,0,0,1,8.68-15h0c2.59-1.5,5.11-1.7,7.08-.56s3.06,3.42,3.06,6.42a18.91,18.91,0,0,1-8.68,15,8.59,8.59,0,0,1-4.28,1.29A5.52,5.52,0,0,1,186.24,343.44Zm7.08-18.9h0c-3.9,2.26-7.2,8-7.2,12.49,0,1.87.58,3.28,1.59,3.87s2.52.38,4.15-.56c3.91-2.25,7.21-8,7.21-12.48,0-1.88-.58-3.29-1.59-3.88a2.68,2.68,0,0,0-1.34-.32A5.79,5.79,0,0,0,193.32,324.54Z" style="fill: rgb(38, 50, 56); transform-origin: 192.59px 332.46px;" id="elh05c6h53xbw" class="animable"></path><path d="M192.59,329.24a6.12,6.12,0,0,0-2.77,4.8c0,1.77,1.24,2.49,2.77,1.61a6.16,6.16,0,0,0,2.78-4.81C195.37,329.07,194.12,328.35,192.59,329.24Z" style="fill: rgb(38, 50, 56); transform-origin: 192.595px 332.442px;" id="elc4y72nzep1i" class="animable"></path><polygon points="192.92 333.21 200.04 324.35 198.89 323.43 192.27 331.68 185.78 331.1 185.65 332.56 192.92 333.21" style="fill: rgb(38, 50, 56); transform-origin: 192.845px 328.32px;" id="elb1b0mnfyu8j" class="animable"></polygon><rect x="191.86" y="332.44" width="1.47" height="9.17" style="fill: rgb(38, 50, 56); transform-origin: 192.595px 337.025px;" id="elgbwkfw0rov" class="animable"></rect><path d="M202,325.06c-.79-.05-1.56.11-2.09,1.66-.42,1.21-.84,4.75,1.57,4.91C204.38,331.12,202,325.06,202,325.06Z" style="fill: rgb(177, 102, 104); transform-origin: 201.253px 328.341px;" id="el16aa8z19tpc" class="animable"></path></g><path d="M156.88,339.67q-6.24-2.76-12.48-5.66l22.33-3.35c1,.33,15,5.52,15.32,8C172.87,339.88,164.06,340.37,156.88,339.67Z" style="fill: rgb(38, 50, 56); transform-origin: 163.225px 335.326px;" id="elyvz9ejyti3e" class="animable"></path><path d="M165.59,311.22c-.48-3.41-1.23-7.79-5.89-8.24a68.2,68.2,0,0,0-9.15,1c-3,.66-5.61,1.37-7,1.78l-.19,10.06.93,12.38s-.26,3.81-.33,7.24c9.32,3.32,19.63,0,22.34-4.59C166.22,326.26,166.05,314.61,165.59,311.22Z" style="fill: rgb(177, 102, 104); transform-origin: 154.83px 319.883px;" id="elmwz0jtj5g0p" class="animable"></path><path d="M143.51,317.29a7,7,0,0,0,2.55-3,6,6,0,0,1-2.47,4Z" style="fill: rgb(154, 74, 77); transform-origin: 144.785px 316.29px;" id="elc4gw7jnfre" class="animable"></path><path d="M145.39,305.2a.44.44,0,0,1,.07-.42c1-1,5.06-1.46,5.06-1.46l0,.62c1.91,3.82,9.41,10.17,9.41,10.17,1.55-5.61-2.34-11-2.34-11v-.24c.45-.05,1.12-.05,2.44-.05,2.94,0,4.66,1.73,5.79,6.59s1.29,19.64,1.32,21.14-.48,3-6.08,5.33a22.65,22.65,0,0,1-14.68.87c-3.42-1.06-2.68-2.39-2.72-4.87-.05-2.95-.11-9.6-.28-11.48a8.59,8.59,0,0,1-.11-1.78c.08-.34.3-.32.3-.32l0,.39c.49.07,2.68-.08,3.95-3.67,1.63-4.57-.64-8.71-1.54-10Z" style="fill: rgb(38, 86, 194); transform-origin: 155.202px 320.2px;" id="ele8i191n9u0j" class="animable"></path><path d="M145.39,305.2a.44.44,0,0,1,.07-.42c1-1,5.06-1.46,5.06-1.46l0,.62c1.91,3.82,9.41,10.17,9.41,10.17,1.55-5.61-2.34-11-2.34-11v-.24c.45-.05,1.12-.05,2.44-.05,2.94,0,4.66,1.73,5.79,6.59s1.29,19.64,1.32,21.14-.48,3-6.08,5.33a22.65,22.65,0,0,1-14.68.87c-3.42-1.06-2.68-2.39-2.72-4.87-.05-2.95-.11-9.6-.28-11.48a8.59,8.59,0,0,1-.11-1.78c.08-.34.3-.32.3-.32l0,.39c.49.07,2.68-.08,3.95-3.67a11.06,11.06,0,0,0-1.54-9.84Z" style="fill: rgb(38, 86, 194); transform-origin: 155.202px 320.2px;" id="elnioa4glet3" class="animable"></path><g id="eludasivr93xg"><path d="M161.08,335.88l.63-.26c.22-4.27.64-16.86-1.75-21.52,0,0,1.48,8,.33,22.08C160.55,336.09,160.82,336,161.08,335.88Z" style="opacity: 0.1; transform-origin: 160.923px 325.14px;" class="animable"></path></g><path d="M152.32,329.38c5.53-.26,12.38-2,14.72-4.55,0-.53,0-1.08,0-1.64-2.39,2.52-9.18,4.24-14.67,4.49-5.26.25-8-.95-8.74-2.05l0,1.73C144.37,328.45,147.13,329.62,152.32,329.38Z" style="fill: rgb(69, 90, 100); transform-origin: 155.335px 326.301px;" id="elvw995jpquw" class="animable"></path><path d="M152.32,333.45c5.6-.26,12.56-2,14.81-4.64,0-.48,0-1,0-1.66-2.29,2.58-9.21,4.35-14.78,4.6-5.12.24-7.87-.89-8.67-2,0,.63,0,1.22,0,1.72C144.5,332.58,147.25,333.69,152.32,333.45Z" style="fill: rgb(69, 90, 100); transform-origin: 155.405px 330.317px;" id="elu9j4dibc3d" class="animable"></path><path d="M166.35,312.75c-3.73,3.59-14.9,3.37-19.12,3.1.12-.25.23-.53.34-.83s.18-.55.25-.83a57.94,57.94,0,0,0,11.69-.46l.57-.1a13.06,13.06,0,0,0,6.09-2.41C166.23,311.69,166.29,312.21,166.35,312.75Z" style="fill: rgb(69, 90, 100); transform-origin: 156.79px 313.602px;" id="el6s3ft0gikcb" class="animable"></path><path d="M159.84,313.41c-.93.16-1.69.25-2.07.3a.3.3,0,0,0-.27.3v1.71a.31.31,0,0,0,.34.31c.4,0,1.17-.17,2.34-.4a11.25,11.25,0,0,0,1.86-.49.28.28,0,0,0,.17-.3l-.15-1.63a.3.3,0,0,0-.39-.26A13.8,13.8,0,0,1,159.84,313.41Z" style="fill: rgb(38, 50, 56); transform-origin: 159.857px 314.484px;" id="elyf6l5x3d4de" class="animable"></path><path d="M161.27,325.77c-.92.24-1.66.4-2,.48a.31.31,0,0,0-.24.33l.15,1.7a.31.31,0,0,0,.37.27c.39-.08,1.15-.26,2.29-.6a10.83,10.83,0,0,0,1.81-.65.31.31,0,0,0,.15-.32l-.29-1.6a.3.3,0,0,0-.42-.23A13.21,13.21,0,0,1,161.27,325.77Z" style="fill: rgb(38, 50, 56); transform-origin: 161.417px 326.84px;" id="elslz1jxcoggs" class="animable"></path><path d="M161.27,329.92c-.92.23-1.66.4-2,.48a.3.3,0,0,0-.24.32l.15,1.7a.31.31,0,0,0,.37.28c.39-.09,1.15-.27,2.29-.6a10.83,10.83,0,0,0,1.81-.65.31.31,0,0,0,.15-.32l-.29-1.61a.31.31,0,0,0-.42-.23A14.59,14.59,0,0,1,161.27,329.92Z" style="fill: rgb(38, 50, 56); transform-origin: 161.417px 330.987px;" id="el9ii3qr3fyep" class="animable"></path><path d="M165.36,289.09a6.88,6.88,0,0,0-13.74-.28l-3.16-2.17a2.47,2.47,0,0,0-2,.78c-.84.92-.26,3.68.91,6.37a55.85,55.85,0,0,0,1.66,5.72,2.23,2.23,0,0,0,1.33,1l-.16-3,12.48-1.12-1.25-.86A6.87,6.87,0,0,0,165.36,289.09Z" style="fill: rgb(38, 50, 56); transform-origin: 155.713px 291.462px;" id="elpvk6xdmeb6" class="animable"></path><path d="M150,293.93c-.39.25-1-.49-1.49-1a1.73,1.73,0,0,0-2.88.56c-.76,1.75.83,4,2.11,4.32,2.2.61,2.48-.79,2.48-.79l.37,6.91c.72.75,4.32,5.24,6.49,4.69,1-.25,1.24-2.78.63-4.19l-.08-2.39a13.85,13.85,0,0,0,2.94.05c1.59-.3,2.55-1.59,3-3.34.69-2.81.92-5.07.08-10.52-.92-6-7.9-5.81-11.59-3.31S150,293.93,150,293.93Z" style="fill: rgb(177, 102, 104); transform-origin: 154.811px 295.972px;" id="elcg1wnqcjd6u" class="animable"></path><path d="M165,282.63a2.58,2.58,0,0,0-1.69-.17,2,2,0,0,0-1.26-2,2.37,2.37,0,0,0-2.58.39,1.2,1.2,0,0,0-1-1.34,3.31,3.31,0,0,0-1.84.33c-.87.35-1.73.74-2.61,1.05a23.75,23.75,0,0,0-4.64,1.76,2.93,2.93,0,0,0-.87.77,2.52,2.52,0,0,0-.38,1.57,4.51,4.51,0,0,0,.09.53,1.34,1.34,0,0,0-.38-.28,1.32,1.32,0,0,0-1.8.66l2.39,1.18c0,.48-.1,1-.14,1.44a12.72,12.72,0,0,0,0,4,.86.86,0,0,0,.16.41,2.27,2.27,0,0,1,.33.42l.43.77c.18.34.49.73.93.68.25,0,.37-.38.43-.58.59-2.23.57-4.6,1.32-6.79a.37.37,0,0,1,.1-.17.39.39,0,0,1,.3,0c1.14.18,2.28.37,3.43.5,2.59.31,5.38.33,7.64-1,.89-.51,2.37-1.56,2.5-2.67A1.44,1.44,0,0,0,165,282.63Z" style="fill: rgb(38, 50, 56); transform-origin: 155.953px 287.147px;" id="elqg5r9rx5ohm" class="animable"></path><path d="M157.59,302.05a27.81,27.81,0,0,1-4.87-1.23,4.18,4.18,0,0,1-1.78-1.65,5.63,5.63,0,0,0,1.05,2c.95,1.14,5.63,1.85,5.63,1.85Z" style="fill: rgb(154, 74, 77); transform-origin: 154.28px 301.095px;" id="el5cf27r73sgn" class="animable"></path><path d="M156.44,293.16a.64.64,0,1,1-1.28,0,.64.64,0,1,1,1.28,0Z" style="fill: rgb(38, 50, 56); transform-origin: 155.8px 293.16px;" id="elnxp8ers0txm" class="animable"></path><path d="M155.52,290l-1.63.63a.93.93,0,0,1,.52-1.16A.85.85,0,0,1,155.52,290Z" style="fill: rgb(38, 50, 56); transform-origin: 154.68px 290.022px;" id="elhp47hb6crts" class="animable"></path><path d="M157.17,298l1.65.56a.85.85,0,0,1-1.09.57A.9.9,0,0,1,157.17,298Z" style="fill: rgb(154, 74, 77); transform-origin: 157.973px 298.588px;" id="el6mqudiv8hrd" class="animable"></path><path d="M163.4,290.22l-1.64-.53a.83.83,0,0,1,1.06-.54A.87.87,0,0,1,163.4,290.22Z" style="fill: rgb(38, 50, 56); transform-origin: 162.597px 289.663px;" id="elsu5smu1jvbn" class="animable"></path><path d="M152.61,291.42l-4.61,1.2a1.93,1.93,0,0,1,.87.91l3.78-.88Z" style="fill: rgb(38, 50, 56); transform-origin: 150.325px 292.475px;" id="el6ya77lw39j3" class="animable"></path><path d="M162.93,293a.65.65,0,0,1-.62.68.66.66,0,0,1,0-1.32A.66.66,0,0,1,162.93,293Z" style="fill: rgb(38, 50, 56); transform-origin: 162.29px 293.02px;" id="elrgd2d8hvnfl" class="animable"></path><path d="M165.52,290.52l-.37,0a10.66,10.66,0,0,0-3.66.38c-1.16.44-1.56.87-2.2.92s-1.15-.33-2.4-.61a12,12,0,0,0-3.92.15l-.39.07a.66.66,0,0,0-.42.69,1.47,1.47,0,0,0,.4.75.94.94,0,0,1,.14.3,13,13,0,0,0,.55,2.1,2.62,2.62,0,0,0,.52.73,2.65,2.65,0,0,0,.26.21l.16.09a2.24,2.24,0,0,0,.44.18l.08,0,.11,0,.13,0a2.38,2.38,0,0,0,.39,0h.37a2.76,2.76,0,0,0,2.63-1.77c.37-.83.23-2,1-2h.14c.55.09.52,1.14.89,1.87a2.77,2.77,0,0,0,.55.78.74.74,0,0,0,.13.12l.07.06.07.05.07,0,.07.05,0,0,0,0a2.07,2.07,0,0,0,.65.22h.06a3.26,3.26,0,0,0,.78,0,2.37,2.37,0,0,0,2.23-1.64,15.62,15.62,0,0,0,.39-2.16.56.56,0,0,1,.13-.28,1.61,1.61,0,0,0,.31-.81A.63.63,0,0,0,165.52,290.52Zm-7.62,3.54a2.56,2.56,0,0,1-.52,1.17h0a2.35,2.35,0,0,1-1.74.76,1.89,1.89,0,0,1-1.71-.71l-.05-.07,0-.08-.05-.07,0-.07,0-.05,0-.05,0-.08h0a1.09,1.09,0,0,1-.09-.23h0c0-.05,0-.1,0-.14a1.12,1.12,0,0,1-.06-.23l0,0v0c-.14-.55-.32-1.65-.05-1.92a3.14,3.14,0,0,1,2.19-.54h.13a5.14,5.14,0,0,1,.55.06l.21,0,.54.14.16.06.18.07,0,0,.06,0a1.18,1.18,0,0,1,.37.27A2.61,2.61,0,0,1,157.9,294.06Zm7-.71a2.56,2.56,0,0,1-1.07,1.88,2.22,2.22,0,0,1-.89.26,1.88,1.88,0,0,1-1.81-.72h0l0-.05a.21.21,0,0,1,0-.06l0,0-.05-.09,0-.1s0,0,0-.05v0l0,0a.08.08,0,0,1,0,0,3.15,3.15,0,0,1-.13-.41,2.76,2.76,0,0,1,0-1.71,3.4,3.4,0,0,1,1.93-1,4.05,4.05,0,0,1,.55-.08h.64l.27,0h.2l.08,0,.13.05h0a1,1,0,0,1,.3.18C165.08,291.66,165,292.77,164.87,293.35Z" style="fill: rgb(38, 50, 56); transform-origin: 159.018px 293.491px;" id="elgcrg45nrip" class="animable"></path><path d="M157.9,294.06a2.56,2.56,0,0,1-.52,1.17h0a2.35,2.35,0,0,1-1.74.76,1.89,1.89,0,0,1-1.71-.71l-.05-.07,0-.08-.05-.07,0-.07,0-.05,0-.05,0-.08h0a1.09,1.09,0,0,1-.09-.23h0c0-.05,0-.1,0-.14a1.12,1.12,0,0,1-.06-.23l0,0v0c-.14-.55-.32-1.65-.05-1.92a3.14,3.14,0,0,1,2.19-.54h.13a5.14,5.14,0,0,1,.55.06l.21,0,.54.14.16.06.18.07,0,0,.06,0a1.18,1.18,0,0,1,.37.27A2.61,2.61,0,0,1,157.9,294.06Z" style="fill: rgb(38, 86, 194); transform-origin: 155.8px 293.864px;" id="eldlkvsuzhwpb" class="animable"></path><g id="elbr2dgofd2mv"><path d="M157.9,294.06a2.56,2.56,0,0,1-.52,1.17h0a2.35,2.35,0,0,1-1.74.76,1.89,1.89,0,0,1-1.71-.71l-.05-.07,0-.08-.05-.07,0-.07,0-.05,0-.05,0-.08h0a1.09,1.09,0,0,1-.09-.23h0c0-.05,0-.1,0-.14a1.12,1.12,0,0,1-.06-.23l0,0v0c-.14-.55-.32-1.65-.05-1.92a3.14,3.14,0,0,1,2.19-.54h.13a5.14,5.14,0,0,1,.55.06l.21,0,.54.14.16.06.18.07,0,0,.06,0a1.18,1.18,0,0,1,.37.27A2.61,2.61,0,0,1,157.9,294.06Z" style="opacity: 0.4; transform-origin: 155.8px 293.864px;" class="animable"></path></g><path d="M164.87,293.35a2.56,2.56,0,0,1-1.07,1.88,2.22,2.22,0,0,1-.89.26,1.88,1.88,0,0,1-1.81-.72h0l0-.05a.21.21,0,0,1,0-.06l0,0-.05-.09,0-.1s0,0,0-.05v0l0,0a.08.08,0,0,1,0,0,3.15,3.15,0,0,1-.13-.41,2.76,2.76,0,0,1,0-1.71,3.4,3.4,0,0,1,1.93-1,4.05,4.05,0,0,1,.55-.08h.64l.27,0h.2l.08,0,.13.05h0a1,1,0,0,1,.3.18C165.08,291.66,165,292.77,164.87,293.35Z" style="fill: rgb(38, 86, 194); transform-origin: 162.912px 293.368px;" id="elxl8ey0dbmy8" class="animable"></path><g id="elvee8f4kv5di"><path d="M164.87,293.35a2.56,2.56,0,0,1-1.07,1.88,2.22,2.22,0,0,1-.89.26,1.88,1.88,0,0,1-1.81-.72h0l0-.05a.21.21,0,0,1,0-.06l0,0-.05-.09,0-.1s0,0,0-.05v0l0,0a.08.08,0,0,1,0,0,3.15,3.15,0,0,1-.13-.41,2.76,2.76,0,0,1,0-1.71,3.4,3.4,0,0,1,1.93-1,4.05,4.05,0,0,1,.55-.08h.64l.27,0h.2l.08,0,.13.05h0a1,1,0,0,1,.3.18C165.08,291.66,165,292.77,164.87,293.35Z" style="opacity: 0.4; transform-origin: 162.912px 293.368px;" class="animable"></path></g><polygon points="159.07 293.12 159.28 297.46 161.83 296.82 159.07 293.12" style="fill: rgb(154, 74, 77); transform-origin: 160.45px 295.29px;" id="elkrhgch3y7l" class="animable"></polygon></g><path d="M236,294c24.64,26.55,26.91,50.11,26.91,50.11s-40.38,12.41-106.06-4.43c21.48,2.09,57.72-6.47,73.93-14.12C234.3,321.23,236,294,236,294Z" style="fill: rgb(230, 230, 230); transform-origin: 209.88px 321.257px;" id="elixl01pyso6g" class="animable"></path><g id="el798r3haahpp"><path d="M242.18,288.79a8,8,0,0,1,1.44,1.36c2.77,3.37,3.06,11.73,3.06,11.73,6.6,11.68,11.8,26.18,16.25,42.21C258.93,322.24,249.52,293.21,242.18,288.79Z" style="fill: rgb(38, 86, 194); opacity: 0.5; transform-origin: 252.555px 316.44px;" class="animable"></path></g><g id="eldg51gpzcy9"><path d="M236,294a122.94,122.94,0,0,1,15.57,20.62l-4.9-12.72s0-.63-.11-1.62c-.24-2.6-.94-7.67-2.95-10.11C240.86,286.79,236,286.25,236,294Z" style="fill: rgb(38, 86, 194); opacity: 0.3; transform-origin: 243.785px 301.219px;" class="animable"></path></g><g id="elmqgcx2ko69"><path d="M236,294a122.94,122.94,0,0,1,15.57,20.62l-4.9-12.72s0-.63-.11-1.62c-.24-2.6-.94-7.67-2.95-10.11C240.86,286.79,236,286.25,236,294Z" style="opacity: 0.1; transform-origin: 243.785px 301.219px;" class="animable"></path></g><g id="el7721tx7um6h"><path d="M156.87,339.66h0c65.67,16.83,106,4.42,106,4.42-4.37-15.77-9.53-30.26-16.25-42.21,0,0-32.11,12.28-56.87,18.76C162.93,327.68,156.87,327.2,156.87,339.66Z" style="fill: rgb(38, 86, 194); opacity: 0.3; transform-origin: 209.87px 325.179px;" class="animable"></path></g><path d="M156.88,340.16a.5.5,0,0,1-.5-.5c0-11.13,4.94-12.37,23.35-17,3-.73,6.25-1.56,10-2.53,23.1-6.05,53-17.29,56.48-18.62,0-.27,0-.7-.09-1.23-.25-2.69-1-7.54-2.84-9.84-1.38-1.68-3.19-2.49-4.51-2s-2.21,2.48-2.21,5.53a.5.5,0,0,1-.5.5.5.5,0,0,1-.5-.5c0-4.5,1.56-6,2.88-6.47,1.73-.62,3.94.29,5.61,2.33,2.06,2.5,2.8,7.57,3.06,10.38.09,1,.11,1.65.11,1.65a.5.5,0,0,1-.32.48c-.32.12-32.42,12.36-56.92,18.78-3.71,1-7,1.8-10,2.53-18.26,4.57-22.59,5.65-22.59,16A.5.5,0,0,1,156.88,340.16Z" style="fill: rgb(69, 90, 100); transform-origin: 201.8px 313.734px;" id="elihk4hasbbq" class="animable"></path><path d="M262.93,344.59a.49.49,0,0,1-.48-.37c-4.34-16.25-9.64-30-16.2-42.1a.49.49,0,1,1,.87-.47c6.61,12.14,11.94,26,16.3,42.31a.51.51,0,0,1-.36.62Z" style="fill: rgb(69, 90, 100); transform-origin: 254.813px 322.989px;" id="elj6uiobmvgq" class="animable"></path><path d="M151.89,334.61c-.38-.1-.75-.22-1.11-.35a18.74,18.74,0,0,1-2.51-1c-.18-.1-.64-.33-.67-.5-.06-.39,1.17-.43,1.38-.47,1.19-.21,1.39-.29,1.87-.74A.7.7,0,0,0,151,331a.53.53,0,0,0-.36-.45,1.56,1.56,0,0,0-.61-.08,22.42,22.42,0,0,1-4.33-.29,12,12,0,0,1-2.68-.54,16.18,16.18,0,0,1-2.68-1.79c-1.43-1.33-4.64-4.41-4.64-4.41a63.72,63.72,0,0,1,8.12-6.35s1.88-1.25,2.42-4.82c.47-3.17.51-6.53-.88-7.06a7.34,7.34,0,0,0-5.74,2.19c-2.73,2.61-5,5.2-7.22,7.72a54.33,54.33,0,0,0-5.18,6.94c-1.29,2.07-1.22,3-.11,4.15,2.63,2.66,6.6,5.11,11,8.28a64.3,64.3,0,0,0,7,4.69c1.92,1,5.9,2,8.07-.73S153.67,335.08,151.89,334.61Z" style="fill: rgb(177, 102, 104); transform-origin: 140.235px 322.704px;" id="el094scwh3psf" class="animable"></path><path d="M132.5,322.7a6.76,6.76,0,0,1,3.23.73c.23-.23.53-.5.86-.79A5.7,5.7,0,0,0,132.5,322.7Z" style="fill: rgb(154, 74, 77); transform-origin: 134.545px 322.86px;" id="elmjz74g6om6i" class="animable"></path></g></g><defs>     <filter id="active" height="200%">         <feMorphology in="SourceAlpha" result="DILATED" operator="dilate" radius="2"></feMorphology>                <feFlood flood-color="#32DFEC" flood-opacity="1" result="PINK"></feFlood>        <feComposite in="PINK" in2="DILATED" operator="in" result="OUTLINE"></feComposite>        <feMerge>            <feMergeNode in="OUTLINE"></feMergeNode>            <feMergeNode in="SourceGraphic"></feMergeNode>        </feMerge>    </filter>    <filter id="hover" height="200%">        <feMorphology in="SourceAlpha" result="DILATED" operator="dilate" radius="2"></feMorphology>                <feFlood flood-color="#ff0000" flood-opacity="0.5" result="PINK"></feFlood>        <feComposite in="PINK" in2="DILATED" operator="in" result="OUTLINE"></feComposite>        <feMerge>            <feMergeNode in="OUTLINE"></feMergeNode>            <feMergeNode in="SourceGraphic"></feMergeNode>        </feMerge>            <feColorMatrix type="matrix" values="0   0   0   0   0                0   1   0   0   0                0   0   0   0   0                0   0   0   1   0 "></feColorMatrix>    </filter></defs></svg>